<svg xmlns="http://www.w3.org/2000/svg" xmlns:xlink="http://www.w3.org/1999/xlink" width="940.556" height="673.682" viewBox="0 0 940.556 673.682">
  <defs>
    <linearGradient id="linear-gradient" x1="0.5" y1="1" x2="0.5" gradientUnits="objectBoundingBox">
      <stop offset="0" stop-color="gray" stop-opacity="0.251"/>
      <stop offset="0.54" stop-color="gray" stop-opacity="0.122"/>
      <stop offset="1" stop-color="gray" stop-opacity="0.102"/>
    </linearGradient>
    <linearGradient id="linear-gradient-2" x1="0" y1="0.5" x2="1" y2="0.5" xlink:href="#linear-gradient"/>
  </defs>
  <g id="Groupe_7" data-name="Groupe 7" transform="translate(0 -0.053)">
    <ellipse id="Ellipse_2" data-name="Ellipse 2" cx="141.568" cy="15.659" rx="141.568" ry="15.659" transform="translate(356.097 642.418)" fill="#367cb6" opacity="0.1"/>
    <path id="Tracé_7" data-name="Tracé 7" d="M932.3,501.023c-22.029,45.459-66.782,75.856-113.145,95.9-62.428,27-131.176,37.7-198.978,33.175q-17.832-1.178-35.539-3.79a448.238,448.238,0,0,1-118.826-34.635q-16.339-7.381-32.1-16.057a410.416,410.416,0,0,1-50.145-32.794q-6-4.578-11.827-9.389c-2.7-2.223-5.366-4.5-8.078-6.7a101.936,101.936,0,0,0-18.18-12.383,64.964,64.964,0,0,0-6.088-2.687c-20.8-7.912-44.787-4.926-66.442,1.244-16.455,4.653-32.487,11.081-48.967,15.667a162.541,162.541,0,0,1-22.319,4.744,118.777,118.777,0,0,1-50.17-4.371l-1.385-.431q-3.483-1.095-6.909-2.4l-1.385-.531q-3.318-1.277-6.494-2.745l-1.385-.63q-3.318-1.543-6.494-3.26c-.763-.4-1.518-.829-2.264-1.236A135.745,135.745,0,0,1,92.7,492.43c-.274-.274-.531-.556-.829-.829-1.319-1.427-2.613-2.878-3.865-4.363-.464-.547-.929-1.095-1.385-1.659q-2.231-2.729-4.3-5.565c-.207-.274-.406-.556-.605-.829a119.923,119.923,0,0,1-13.992-25.3c-.116-.274-.224-.556-.323-.829q-1.659-4.271-3.027-8.684c-.373-1.227-.73-2.488-1.045-3.716-.108-.365-.207-.738-.3-1.1C58.489,421.543,58,402.807,58,384.179v-6.511c.133-30.132.6-60.777,5.043-90.494a3.776,3.776,0,0,1,.091-.614A282.613,282.613,0,0,1,69.2,256.852a219.16,219.16,0,0,1,10.21-30.107c10.226-24.052,25.1-45.94,41.61-66.226,41.552-51.015,96.1-93.9,159.947-109.9,68.8-17.276,145.259-.722,200.753,43.46,16.919,13.469,32.122,29.418,51.123,39.744,16.588,8.991,36,12.714,53.769,5.64,14.68-5.806,24.235-8.75,40.723-7.863a341.34,341.34,0,0,1,99.825,20.892c1.294.473,2.588.962,3.873,1.451,83.527,31.973,155.344,95.462,192.65,177.049q1.485,3.235,2.878,6.519C948.81,389.446,956.838,450.381,932.3,501.023Z" transform="translate(-37.249 -43.84)" fill="#045ba4" opacity="0.1"/>
    <path id="Tracé_8" data-name="Tracé 8" d="M223.985,242.058v314.47a162.55,162.55,0,0,1-22.319,4.744A118.777,118.777,0,0,1,151.5,556.9l-1.385-.431q-3.483-1.095-6.909-2.4l-1.385-.531q-3.318-1.277-6.494-2.745l-1.385-.63q-3.318-1.543-6.494-3.26c-.763-.4-1.518-.829-2.264-1.236A135.744,135.744,0,0,1,92.7,520.383c-.274-.274-.531-.556-.829-.829-1.319-1.427-2.613-2.878-3.865-4.363-.464-.547-.929-1.095-1.385-1.659q-2.231-2.729-4.3-5.565c-.207-.274-.406-.556-.605-.829a119.922,119.922,0,0,1-13.992-25.3c-.116-.274-.224-.556-.323-.829q-1.659-4.271-3.027-8.684c-.373-1.227-.73-2.488-1.045-3.716-.108-.365-.207-.738-.3-1.1C58.489,449.5,58,430.76,58,412.132v-6.511c.133-30.132.6-60.777,5.043-90.494a3.776,3.776,0,0,1,.091-.614A282.615,282.615,0,0,1,69.2,284.8h84.672V242.058H170.8V207.73H207.14v34.328Z" transform="translate(-37.249 -71.793)" fill="#045ba4" opacity="0.1"/>
    <path id="Tracé_9" data-name="Tracé 9" d="M990.183,523.354c-22.029,45.459-66.782,75.856-113.145,95.9-62.428,27-131.175,37.7-198.978,33.176q-17.832-1.178-35.539-3.79a448.235,448.235,0,0,1-118.826-34.635q-16.339-7.381-32.1-16.057a410.418,410.418,0,0,1-50.145-32.794q-6-4.578-11.827-9.389c-2.7-2.223-5.366-4.5-8.078-6.7a101.939,101.939,0,0,0-18.18-12.383,64.953,64.953,0,0,0-6.088-2.687V405.308H551.206v28.639h67.553V224.46h79.513v83.768H737.6v-49.6h32.5V205.65h14.929V174.78c1.294.473,2.588.962,3.873,1.451V205.65h14.547v53.014h32.487v49.6h47.881V497.22h76.1V359.8h24.525C1006.7,411.777,1014.724,472.712,990.183,523.354Z" transform="translate(-95.135 -66.171)" fill="#045ba4" opacity="0.1"/>
    <rect id="Rectangle_2" data-name="Rectangle 2" width="35.539" height="35.539" transform="translate(547.386 189.806)" fill="#045ba4" opacity="0.1"/>
    <rect id="Rectangle_3" data-name="Rectangle 3" width="35.539" height="35.539" transform="translate(547.386 263.48)" fill="#045ba4" opacity="0.1"/>
    <rect id="Rectangle_4" data-name="Rectangle 4" width="35.539" height="35.539" transform="translate(547.386 337.146)" fill="#045ba4" opacity="0.1"/>
    <rect id="Rectangle_5" data-name="Rectangle 5" width="35.539" height="35.539" transform="translate(547.386 410.82)" fill="#6c63ff" opacity="0.1"/>
    <rect id="Rectangle_6" data-name="Rectangle 6" width="35.539" height="35.539" transform="translate(547.386 484.494)" fill="#6c63ff" opacity="0.1"/>
    <path id="Tracé_10" data-name="Tracé 10" d="M728.509,716.81v28.066q-17.832-1.178-35.539-3.79V716.81Z" transform="translate(-145.584 -158.65)" fill="#6c63ff" opacity="0.1"/>
    <rect id="Rectangle_7" data-name="Rectangle 7" width="124.4" height="16.098" transform="translate(313.864 385.068)" fill="#6c63ff" opacity="0.1"/>
    <rect id="Rectangle_8" data-name="Rectangle 8" width="124.4" height="16.098" transform="translate(313.864 433.952)" fill="#6c63ff" opacity="0.1"/>
    <path id="Tracé_11" data-name="Tracé 11" d="M538.394,626v16.09H446.465q-6-4.578-11.827-9.389c-2.7-2.223-5.366-4.5-8.078-6.7Z" transform="translate(-100.131 -143.156)" fill="#6c63ff" opacity="0.1"/>
    <path id="Tracé_12" data-name="Tracé 12" d="M552.8,685v16.1h-9.7Q526.758,693.675,511,685Z" transform="translate(-114.537 -153.222)" fill="#6c63ff" opacity="0.1"/>
    <rect id="Rectangle_9" data-name="Rectangle 9" width="23.132" height="23.132" transform="translate(642.284 286.039)" fill="#045ba4" opacity="0.1"/>
    <rect id="Rectangle_10" data-name="Rectangle 10" width="23.132" height="23.132" transform="translate(141.336 178.236)" fill="#045ba4" opacity="0.1"/>
    <rect id="Rectangle_11" data-name="Rectangle 11" width="23.132" height="23.132" transform="translate(141.336 231.98)" fill="#045ba4" opacity="0.1"/>
    <rect id="Rectangle_12" data-name="Rectangle 12" width="23.132" height="23.132" transform="translate(141.336 285.724)" fill="#045ba4" opacity="0.1"/>
    <rect id="Rectangle_13" data-name="Rectangle 13" width="23.132" height="23.132" transform="translate(141.336 339.46)" fill="#6c63ff" opacity="0.1"/>
    <rect id="Rectangle_14" data-name="Rectangle 14" width="23.132" height="23.132" transform="translate(141.336 393.204)" fill="#6c63ff" opacity="0.1"/>
    <rect id="Rectangle_15" data-name="Rectangle 15" width="23.132" height="23.132" transform="translate(141.336 446.948)" fill="#6c63ff" opacity="0.1"/>
    <rect id="Rectangle_16" data-name="Rectangle 16" width="23.132" height="23.132" transform="translate(730.614 286.039)" fill="#045ba4" opacity="0.1"/>
    <rect id="Rectangle_17" data-name="Rectangle 17" width="23.132" height="23.132" transform="translate(642.284 343.109)" fill="#045ba4" opacity="0.1"/>
    <rect id="Rectangle_18" data-name="Rectangle 18" width="23.132" height="23.132" transform="translate(730.614 343.109)" fill="#045ba4" opacity="0.1"/>
    <rect id="Rectangle_19" data-name="Rectangle 19" width="23.132" height="23.132" transform="translate(642.284 400.171)" fill="#6c63ff" opacity="0.1"/>
    <rect id="Rectangle_20" data-name="Rectangle 20" width="23.132" height="23.132" transform="translate(730.614 400.171)" fill="#045ba4" opacity="0.1"/>
    <rect id="Rectangle_21" data-name="Rectangle 21" width="23.132" height="23.132" transform="translate(642.284 457.241)" fill="#6c63ff" opacity="0.1"/>
    <rect id="Rectangle_22" data-name="Rectangle 22" width="23.132" height="23.132" transform="translate(730.614 457.241)" fill="#6c63ff" opacity="0.1"/>
    <rect id="Rectangle_23" data-name="Rectangle 23" width="23.132" height="23.132" transform="translate(642.284 514.311)" fill="#6c63ff" opacity="0.1"/>
    <rect id="Rectangle_24" data-name="Rectangle 24" width="23.132" height="23.132" transform="translate(730.614 514.311)" fill="#6c63ff" opacity="0.1"/>
    <path id="Tracé_13" data-name="Tracé 13" d="M774.41,703.821V688.9h23.132v12.8Z" transform="translate(-132.126 -117.527)" fill="#6c63ff" opacity="0.1"/>
    <path id="Tracé_14" data-name="Tracé 14" d="M64.06,336.48v13.27h88.471V336.48Zm7.879,12.441H65.445V337.309h6.494Zm7.879,0H73.324V337.309h6.494Zm7.879,0H81.2V337.309H87.7Zm7.879,0H89.083V337.309h6.494Zm7.879,0H96.962V337.309h6.494Zm7.879,0h-6.494V337.309h6.494Zm7.879,0H112.72V337.309h6.494Zm7.879,0H120.6V337.309h6.494Zm7.879,0h-6.494V337.309h6.494Zm7.879,0h-6.494V337.309h6.494Zm8.294,0h-6.909V337.309h6.909Z" transform="translate(-38.283 -93.76)" fill="#045ba4" opacity="0.1"/>
    <path id="Tracé_15" data-name="Tracé 15" d="M64.06,382.94v13.229h88.471V382.94Zm7.879,12.4H65.445v-11.57h6.494Zm7.879,0H73.324v-11.57h6.494Zm7.879,0H81.2v-11.57H87.7Zm7.879,0H89.083v-11.57h6.494Zm7.879,0H96.962v-11.57h6.494Zm7.879,0h-6.494v-11.57h6.494Zm7.879,0H112.72v-11.57h6.494Zm7.879,0H120.6v-11.57h6.494Zm7.879,0h-6.494v-11.57h6.494Zm7.879,0h-6.494v-11.57h6.494Zm8.294,0h-6.909v-11.57h6.909Z" transform="translate(-38.283 -101.686)" fill="#045ba4" opacity="0.1"/>
    <path id="Tracé_16" data-name="Tracé 16" d="M64.06,429.39v13.229h88.471V429.39Zm7.879,12.4H65.445v-11.57h6.494Zm7.879,0H73.324v-11.57h6.494Zm7.879,0H81.2v-11.57H87.7Zm7.879,0H89.083v-11.57h6.494Zm7.879,0H96.962v-11.57h6.494Zm7.879,0h-6.494v-11.57h6.494Zm7.879,0H112.72v-11.57h6.494Zm7.879,0H120.6v-11.57h6.494Zm7.879,0h-6.494v-11.57h6.494Zm7.879,0h-6.494v-11.57h6.494Zm8.294,0h-6.909v-11.57h6.909Z" transform="translate(-38.283 -109.611)" fill="#045ba4" opacity="0.1"/>
    <path id="Tracé_17" data-name="Tracé 17" d="M64.06,475.84v13.27h88.471V475.84Zm7.879,12.441H65.445V476.669h6.494Zm7.879,0H73.324V476.669h6.494Zm7.879,0H81.2V476.669H87.7Zm7.879,0H89.083V476.669h6.494Zm7.879,0H96.962V476.669h6.494Zm7.879,0h-6.494V476.669h6.494Zm7.879,0H112.72V476.669h6.494Zm7.879,0H120.6V476.669h6.494Zm7.879,0h-6.494V476.669h6.494Zm7.879,0h-6.494V476.669h6.494Zm8.294,0h-6.909V476.669h6.909Z" transform="translate(-38.283 -117.537)" fill="#045ba4" opacity="0.1"/>
    <path id="Tracé_18" data-name="Tracé 18" d="M64.47,522.29c.315,1.244.672,2.488,1.045,3.716v-2.886h6.494v11.611H68.542c.1.274.207.556.323.829h83.768V522.29Zm15.418,12.441H73.394V523.119h6.494Zm7.879,0H81.273V523.119h6.494Zm7.879,0H89.153V523.119h6.494Zm7.879,0H97.032V523.119h6.494Zm7.879,0h-6.494V523.119H111.4Zm7.879,0H112.79V523.119h6.494Zm7.879,0h-6.494V523.119h6.494Zm7.879,0h-6.494V523.119h6.494Zm7.879,0h-6.494V523.119h6.494Zm8.294,0h-6.909V523.119h6.909Z" transform="translate(-38.353 -125.462)" fill="#045ba4" opacity="0.1"/>
    <path id="Tracé_19" data-name="Tracé 19" d="M86.64,568.74c.2.274.4.556.605.829h4.3v5.565c.456.556.921,1.1,1.385,1.659v-7.216h6.494v11.611H96.8a11.171,11.171,0,0,0,.829.829h58.8v-13.27Zm20.668,12.441h-6.494V569.569h6.494Zm7.879,0h-6.494V569.569h6.494Zm7.879,0h-6.494V569.569h6.494Zm7.879,0h-6.494V569.569h6.494Zm7.879,0h-6.494V569.569h6.494Zm7.879,0H140.21V569.569H146.7Zm8.294,0h-6.909V569.569H155Z" transform="translate(-42.135 -133.387)" fill="#045ba4" opacity="0.1"/>
    <path id="Tracé_20" data-name="Tracé 20" d="M139,615.19c.746.423,1.5.829,2.264,1.236v-.406h6.494v3.666l1.385.63v-4.3h6.494v7.041l1.385.531v-7.572h6.909v9.953l1.385.431V615.19Z" transform="translate(-51.069 -141.312)" fill="#6c63ff" opacity="0.1"/>
    <path id="Tracé_21" data-name="Tracé 21" d="M464.3,197.995s-19.764-1.186-17.417,12.665a3.376,3.376,0,0,0,1.75,3.558s.041-1.028,2.032-.68a8.808,8.808,0,0,0,2.148.108,4.437,4.437,0,0,0,2.621-1.087h0s5.557-2.3,7.722-11.379c0,0,1.6-1.982,1.534-2.488l-3.318,1.427a5.987,5.987,0,0,1,.241,4.4s-.108-4.321-.746-4.213c-.133,0-1.733.829-1.733.829s1.957,4.2.481,7.241c0,0,.564-5.167-1.095-6.934l-2.347,1.368s2.289,4.329.738,7.863c0,0,.4-5.416-1.236-7.531l-2.123,1.659s2.148,4.271.829,7.2c0,0-.174-6.3-1.3-6.784a13.27,13.27,0,0,0-2.148,2.314s1.476,3.1.564,4.736c0,0-.564-4.2-1.02-4.222,0,0-1.858,2.787-2.049,4.694a10.151,10.151,0,0,1,1.6-4.976,5.59,5.59,0,0,0-2.845,1.468s.29-1.966,3.318-2.14a12.909,12.909,0,0,1,1.941-2.239,12.221,12.221,0,0,0-4.81.556s1.6-1.858,5.358-1.02l2.107-1.709s-4-.539-5.656.041c0,0,1.924-1.659,6.179-.448l2.289-1.368a20.916,20.916,0,0,0-5.366-.464s2.115-1.136,6.03.1l1.659-.738s-2.488-.481-3.185-.556-.763-.282-.763-.282a8.559,8.559,0,0,1,4.628.514A22.738,22.738,0,0,0,464.3,197.995Z" transform="translate(-103.564 -70.128)" fill="#6c63ff" opacity="0.1"/>
    <path id="Tracé_22" data-name="Tracé 22" d="M405,279.2s-6.751,18.62,7.191,20.32a3.392,3.392,0,0,0,3.915-.672s-.979-.332-.075-2.14a9.3,9.3,0,0,0,.7-2.032,4.453,4.453,0,0,0-.29-2.82h0s-.622-5.98-8.725-10.633c0,0-1.443-2.1-1.949-2.181l.423,3.6a5.978,5.978,0,0,1,4.288,1.02s-4.147-1.12-4.255-.481c0,.133.307,1.9.307,1.9s4.578-.688,7.083,1.6c0,0-4.794-2.007-6.967-.921l.647,2.637s4.81-.97,7.755,1.526c0,0-5.084-1.924-7.572-.954l.987,2.488s4.7-.829,7.141,1.244c0,0-6.1-1.659-6.876-.68a13.055,13.055,0,0,0,1.609,2.712s3.392-.531,4.7.829c0,0-4.188-.655-4.338-.216,0,0,2.14,2.571,3.915,3.318a10.143,10.143,0,0,1-4.3-2.936,5.623,5.623,0,0,0,.605,3.135s-1.808-.829-1.111-3.765a13.355,13.355,0,0,1-1.6-2.488,12.173,12.173,0,0,0-.829,4.761s-1.335-2.057.547-5.424l-1.053-2.488s-1.659,3.624-1.534,5.391c0,0-1.028-2.306,1.327-6.046l-.663-2.579a20.519,20.519,0,0,0-1.966,4.976s-.489-2.347,1.808-5.756l-.241-1.783s-1.169,2.223-1.443,2.895-.481.655-.481.655a8.493,8.493,0,0,1,1.808-4.288S405.236,279.206,405,279.2Z" transform="translate(-96.174 -83.96)" fill="#6c63ff" opacity="0.1"/>
    <path id="Tracé_23" data-name="Tracé 23" d="M563.043,260.286s-6.76,18.611,7.191,20.312a3.359,3.359,0,0,0,3.906-.672s-.97-.323-.075-2.14a9.446,9.446,0,0,0,.713-2.024,4.487,4.487,0,0,0-.3-2.828h0s-.622-5.98-8.717-10.633c0,0-1.443-2.09-1.949-2.181l.415,3.608a6.109,6.109,0,0,1,4.3,1.02s-4.147-1.128-4.255-.481c0,.133.307,1.9.307,1.9s4.578-.688,7.075,1.592c0,0-4.794-2.007-6.959-.921l.647,2.637s4.8-.962,7.747,1.526c0,0-5.084-1.916-7.564-.954l.987,2.488s4.7-.829,7.141,1.236c0,0-6.1-1.659-6.875-.68a13.068,13.068,0,0,0,1.609,2.72s3.392-.539,4.694.829c0,0-4.188-.655-4.338-.224,0,0,2.148,2.571,3.923,3.318a10.153,10.153,0,0,1-4.3-2.944,5.574,5.574,0,0,0,.605,3.143s-1.808-.829-1.12-3.774a12.7,12.7,0,0,1-1.592-2.488,12.029,12.029,0,0,0-.829,4.769s-1.327-2.057.547-5.424l-1.045-2.488s-1.659,3.624-1.543,5.4c0,0-1.028-2.314,1.327-6.055l-.655-2.579a20.681,20.681,0,0,0-1.966,4.976s-.5-2.347,1.8-5.756l-.24-1.775s-1.161,2.223-1.443,2.895-.473.647-.473.647a8.527,8.527,0,0,1,1.8-4.288S563.267,260.286,563.043,260.286Z" transform="translate(-123.137 -80.732)" fill="#6c63ff" opacity="0.1"/>
    <path id="Tracé_24" data-name="Tracé 24" d="M337.134,443.766s-6.751,18.62,7.191,20.312a3.376,3.376,0,0,0,3.915-.672s-.979-.323-.075-2.132a9.016,9.016,0,0,0,.7-2.032,4.478,4.478,0,0,0-.29-2.828h0s-.622-5.98-8.717-10.633c0,0-1.451-2.09-1.957-2.181l.423,3.608a6,6,0,0,1,4.3,1.02s-4.147-1.128-4.263-.481c0,.133.307,1.9.307,1.9s4.578-.688,7.083,1.592c0,0-4.794-2.007-6.967-.921l.655,2.637s4.8-.962,7.746,1.526c0,0-5.084-1.916-7.572-.954l.987,2.488s4.7-.829,7.141,1.236c0,0-6.1-1.659-6.876-.68a12.814,12.814,0,0,0,1.617,2.72s3.384-.539,4.694.829c0,0-4.188-.655-4.338-.224,0,0,2.14,2.571,3.915,3.318a10.151,10.151,0,0,1-4.3-2.944,5.614,5.614,0,0,0,.6,3.143s-1.8-.829-1.111-3.774a13.084,13.084,0,0,1-1.6-2.488,12.228,12.228,0,0,0-.829,4.769s-1.327-2.057.547-5.424l-1.045-2.488s-1.659,3.624-1.543,5.4c0,0-1.028-2.314,1.327-6.046l-.663-2.588a20.674,20.674,0,0,0-1.966,4.976s-.489-2.347,1.808-5.756l-.241-1.775s-1.169,2.223-1.443,2.895-.481.647-.481.647a8.585,8.585,0,0,1,1.808-4.288S337.366,443.766,337.134,443.766Z" transform="translate(-84.594 -112.036)" fill="#6c63ff" opacity="0.1"/>
    <path id="Tracé_25" data-name="Tracé 25" d="M304.813,232.168s-6.759,18.62,7.182,20.32a3.392,3.392,0,0,0,3.915-.672s-.97-.332-.075-2.14a8.87,8.87,0,0,0,.705-2.032,4.487,4.487,0,0,0-.29-2.828h0s-.622-5.98-8.717-10.624c0,0-1.443-2.1-1.957-2.181l.423,3.6a6,6,0,0,1,4.3,1.02s-4.147-1.12-4.255-.481c0,.133.307,1.9.307,1.9s4.57-.688,7.075,1.592c0,0-4.794-2-6.959-.921l.647,2.646s4.8-.97,7.746,1.526c0,0-5.084-1.924-7.564-.962l.987,2.488s4.7-.829,7.133,1.236c0,0-6.1-1.659-6.876-.672a12.8,12.8,0,0,0,1.617,2.712s3.384-.531,4.694.829c0,0-4.188-.655-4.338-.216,0,0,2.148,2.571,3.915,3.318a10.094,10.094,0,0,1-4.3-2.936,5.548,5.548,0,0,0,.605,3.135s-1.808-.829-1.12-3.765a13.352,13.352,0,0,1-1.6-2.488,12.228,12.228,0,0,0-.829,4.769s-1.327-2.057.547-5.424l-1.045-2.488s-1.659,3.624-1.543,5.391c0,0-1.028-2.306,1.327-6.046l-.664-2.579a20.882,20.882,0,0,0-1.966,4.976s-.489-2.355,1.808-5.756l-.241-1.783s-1.161,2.223-1.443,2.895-.481.647-.481.647a8.584,8.584,0,0,1,1.808-4.288S305.037,232.176,304.813,232.168Z" transform="translate(-79.079 -75.936)" fill="#6c63ff" opacity="0.1"/>
    <path id="Tracé_26" data-name="Tracé 26" d="M365.58,354.281s5.217,19.076,17.583,12.441a3.384,3.384,0,0,0,2.812-2.8s-.987.3-1.294-1.7a9.794,9.794,0,0,0-.589-2.073,4.529,4.529,0,0,0-1.874-2.14h0s-3.956-4.52-13.27-3.658c0,0-2.389-.879-2.845-.655l2.414,2.7a6.057,6.057,0,0,1,4.1-1.659s-4.056,1.485-3.749,2.057c.058.124,1.344,1.377,1.344,1.377s3.318-3.2,6.7-2.778c0,0-5.076,1.128-6.22,3.26l2.057,1.791s3.359-3.566,7.207-3.226c0,0-5.258,1.36-6.735,3.583l2.256,1.485s3.318-3.409,6.544-3.11c0,0-5.922,2.19-6,3.409a12.776,12.776,0,0,0,2.878,1.294s2.488-2.389,4.3-2.049c0,0-3.8,1.874-3.674,2.322a14.761,14.761,0,0,0,5.1.431,10.069,10.069,0,0,1-5.209.075,5.631,5.631,0,0,0,2.306,2.223s-1.957.357-3.085-2.438a12.924,12.924,0,0,1-2.745-1.12,12.169,12.169,0,0,0,2.065,4.371s-2.273-.912-2.679-4.744l-2.3-1.443s.755,3.906,1.858,5.3c0,0-2.173-1.294-2.405-5.706l-2.032-1.725a20.552,20.552,0,0,0,1.286,5.225s-1.758-1.659-1.85-5.748l-1.219-1.31s.332,2.488.489,3.193,0,.829,0,.829a8.493,8.493,0,0,1-1-4.545S365.762,354.149,365.58,354.281Z" transform="translate(-89.726 -96.69)" fill="#6c63ff" opacity="0.1"/>
    <path id="Tracé_27" data-name="Tracé 27" d="M536.21,374.871s5.217,19.076,17.591,12.441a3.376,3.376,0,0,0,2.8-2.8s-.979.3-1.294-1.7a8.908,8.908,0,0,0-.589-2.073,4.5,4.5,0,0,0-1.866-2.14h0s-3.956-4.52-13.27-3.658c0,0-2.389-.879-2.853-.655l2.422,2.7a6.057,6.057,0,0,1,4.1-1.659s-4.056,1.485-3.757,2.065c.058.116,1.344,1.368,1.344,1.368s3.318-3.2,6.7-2.778c0,0-5.068,1.128-6.212,3.259l2.049,1.792s3.367-3.566,7.207-3.226c0,0-5.258,1.36-6.735,3.583l2.256,1.485s3.318-3.409,6.552-3.11c0,0-5.922,2.19-6.013,3.417a12.93,12.93,0,0,0,2.886,1.286s2.488-2.389,4.3-2.049c0,0-3.8,1.883-3.666,2.322a14.759,14.759,0,0,0,5.1.431,10.069,10.069,0,0,1-5.209.075,5.574,5.574,0,0,0,2.306,2.223s-1.957.357-3.094-2.438a12.925,12.925,0,0,1-2.745-1.12,12.324,12.324,0,0,0,2.073,4.379s-2.272-.921-2.679-4.752l-2.3-1.443s.746,3.906,1.849,5.3c0,0-2.173-1.294-2.405-5.706l-2.024-1.725a20.788,20.788,0,0,0,1.277,5.225s-1.758-1.659-1.841-5.748l-1.219-1.31s.332,2.488.489,3.193,0,.829,0,.829a8.493,8.493,0,0,1-1-4.545S536.4,374.7,536.21,374.871Z" transform="translate(-118.838 -100.203)" fill="#6c63ff" opacity="0.1"/>
    <path id="Tracé_28" data-name="Tracé 28" d="M922.97,668.5l8.352,8.816,13.245-23.339-1.194-2.621Z" transform="translate(-157.472 -111.123)" fill="#6c63ff"/>
    <path id="Tracé_29" data-name="Tracé 29" d="M922.97,668.5l8.352,8.816,13.245-23.339-1.194-2.621Z" transform="translate(-157.472 -111.123)" opacity="0.2"/>
    <path id="Tracé_30" data-name="Tracé 30" d="M225.785,669.534c0,44.289-30.331,53.686-60.728,53.686S117.55,685.9,117.55,641.592s24.641-80.2,55.038-80.2S225.785,625.244,225.785,669.534Z" transform="translate(-47.409 -132.133)" fill="#636780"/>
    <path id="Tracé_31" data-name="Tracé 31" d="M225.785,669.534c0,44.289-30.331,53.686-60.728,53.686S117.55,685.9,117.55,641.592s24.641-80.2,55.038-80.2S225.785,625.244,225.785,669.534Z" transform="translate(-47.409 -132.133)" opacity="0.2"/>
    <path id="Tracé_32" data-name="Tracé 32" d="M204.469,643.313c0,44.289-19.524,80.2-43.609,80.2S116.3,687.6,116.3,643.313c0-6.121-.945-12.076-.241-17.8,4.4-35.722,24.052-62.395,44.787-62.395C184.945,563.12,204.469,599.024,204.469,643.313Z" transform="translate(-47.109 -132.428)" fill="#636780"/>
    <path id="Tracé_33" data-name="Tracé 33" d="M207.109,422.55s-38.226,42.863-50.369,78.584l330.1,36.443L663.66,501.134s-70.033-83.917-88.96-87.16S207.109,422.55,207.109,422.55Z" transform="translate(-54.095 -106.885)" fill="#045ba4"/>
    <path id="Tracé_34" data-name="Tracé 34" d="M207.109,422.55s-38.226,42.863-50.369,78.584l330.1,36.443L663.66,501.134s-70.033-83.917-88.96-87.16S207.109,422.55,207.109,422.55Z" transform="translate(-54.095 -106.885)" opacity="0.4"/>
    <path id="Tracé_35" data-name="Tracé 35" d="M476.53,510.567,529.511,659.21V621.589l14.746-42.116,40.856-18.089,51.8,23.5,18.529,5.789,1.617-34.287-61.59-30.364L566.8,512.267l-65.629-5.723-18.105-3.235Z" transform="translate(-81.303 -85.863)" fill="#045ba4"/>
    <path id="Tracé_36" data-name="Tracé 36" d="M535.855,570l48.2,5.532c-2.19-19.25,12.1-19.25,12.1-19.25l-48.22-8.344H525.43" transform="translate(-116.999 -129.838)" fill="#045ba4"/>
    <path id="Tracé_37" data-name="Tracé 37" d="M572.112,737.849h34.171l98.954-3.318s2.14,18.868,28.2,14.431c0,0,14.348.921,15.891-6.876s-32.678-79.845-32.678-79.845L670,627.408,627.7,617.14l-30.364,8.932L578.042,656.76,565.9,698.768Z" transform="translate(-123.904 -141.644)" fill="#636780"/>
    <path id="Tracé_38" data-name="Tracé 38" d="M572.112,737.849h34.171l98.954-3.318s2.14,18.868,28.2,14.431c0,0,14.348.921,15.891-6.876s-32.678-79.845-32.678-79.845L670,627.408,627.7,617.14l-30.364,8.932L578.042,656.76,565.9,698.768Z" transform="translate(-123.904 -141.644)" opacity="0.2"/>
    <path id="Tracé_39" data-name="Tracé 39" d="M218.532,436.285c-4.893,4-20.353,18.338-33.233,48.66A7.332,7.332,0,0,0,191.1,495.1l77.614,10.06a11.727,11.727,0,0,0,12.905-8.841l13.643-55.66a5.557,5.557,0,0,0-5.507-6.884L221.94,435.04A5.5,5.5,0,0,0,218.532,436.285Z" transform="translate(-58.867 -110.36)" fill="#045ba4"/>
    <path id="Tracé_40" data-name="Tracé 40" d="M218.532,436.285c-4.893,4-20.353,18.338-33.233,48.66A7.332,7.332,0,0,0,191.1,495.1l77.614,10.06a11.727,11.727,0,0,0,12.905-8.841l13.643-55.66a5.557,5.557,0,0,0-5.507-6.884L221.94,435.04A5.5,5.5,0,0,0,218.532,436.285Z" transform="translate(-58.867 -110.36)" fill="#fff" opacity="0.2"/>
    <path id="Tracé_41" data-name="Tracé 41" d="M356.356,433.459l87.4-.829A14.85,14.85,0,0,1,457.815,443.2l27.254,61.9c2.413,7.249-2.8,14.8-9.953,14.382l-127.576-8.4c-10.583-.614-18.072-11.4-15.626-22.526l9.248-42.025C342.829,438.925,349.1,433.526,356.356,433.459Z" transform="translate(-83.903 -110.164)" fill="#045ba4"/>
    <path id="Tracé_42" data-name="Tracé 42" d="M356.356,433.459l87.4-.829A14.85,14.85,0,0,1,457.815,443.2l27.254,61.9c2.413,7.249-2.8,14.8-9.953,14.382l-127.576-8.4c-10.583-.614-18.072-11.4-15.626-22.526l9.248-42.025C342.829,438.925,349.1,433.526,356.356,433.459Z" transform="translate(-83.903 -110.164)" fill="#fff" opacity="0.2"/>
    <path id="Tracé_43" data-name="Tracé 43" d="M524.072,430.476c23.895-.431,87.218-2.239,118.718-9.5,0,0,54.059,40.723,70.257,71.443,0,0-84.266,20.511-142.464,23.289a22.053,22.053,0,0,1-20.876-12.441l-30.944-64.128a6.021,6.021,0,0,1,5.308-8.667Z" transform="translate(-115.757 -108.177)" fill="#045ba4"/>
    <path id="Tracé_44" data-name="Tracé 44" d="M524.072,430.476c23.895-.431,87.218-2.239,118.718-9.5,0,0,54.059,40.723,70.257,71.443,0,0-84.266,20.511-142.464,23.289a22.053,22.053,0,0,1-20.876-12.441l-30.944-64.128a6.021,6.021,0,0,1,5.308-8.667Z" transform="translate(-115.757 -108.177)" fill="#fff" opacity="0.2"/>
    <path id="Tracé_45" data-name="Tracé 45" d="M560.953,443.132c9.953-.174,29.369-.688,48.328-2.107a90.843,90.843,0,0,1,74.835,30.264l.614.7a11.81,11.81,0,0,1-6.453,19.292c-20.917,4.487-56.547,11.338-84.05,12.665a15.758,15.758,0,0,1-14.987-8.891l-22.078-45.757a4.3,4.3,0,0,1,3.79-6.162Z" transform="translate(-122.34 -111.552)" fill="#fff" opacity="0.1"/>
    <path id="Tracé_46" data-name="Tracé 46" d="M496.475,697.4v22.858L243.795,681.68c-12.383-4.288-19.773-1.659-19.773-1.659-9.123-4.454-15.758-21.829-15.949-22.393h0l4.769-13.809L174.11,579.757l-51.53,2.14c8.1-64.783,31.434-67.877,31.434-67.877l302.726,28.1Z" transform="translate(-48.267 -124.051)" fill="#035aa4"/>
    <path id="Tracé_47" data-name="Tracé 47" d="M502.636,566.87c-1.982,2.173-5.607,4.147-12.291,3.964-10.243-.249-12.184-8.991-12.441-14.207a24.427,24.427,0,0,1,.108-3.832l13.419-4.105,2.745,2.563,8.1,7.589A5.731,5.731,0,0,1,502.636,566.87Z" transform="translate(-108.885 -129.966)" opacity="0.1"/>
    <path id="Tracé_48" data-name="Tracé 48" d="M502.636,566.01c-1.982,2.173-5.607,4.147-12.291,3.965-10.243-.249-12.184-8.991-12.441-14.207a24.428,24.428,0,0,1,.108-3.832l13.419-4.105,2.745,2.563,8.1,7.589A5.731,5.731,0,0,1,502.636,566.01Z" transform="translate(-108.885 -129.819)" fill="#dce0ed"/>
    <path id="Tracé_49" data-name="Tracé 49" d="M494.186,550.393c-1.717,4.371-6.793,5.557-6.793,5.557l-9.48-.182a24.428,24.428,0,0,1,.108-3.832l13.419-4.105Z" transform="translate(-108.887 -129.819)" opacity="0.1"/>
    <path id="Tracé_50" data-name="Tracé 50" d="M452.868,510.549s-21.431,2.87-15.717,22.244c4.329,14.68,13.992,15.667,18.421,15.294a73.36,73.36,0,0,1,7.755-.282l16.944.34s9.571-2.231,6.892-11.877S472.159,508.94,452.868,510.549Z" transform="translate(-101.772 -123.441)" fill="#f0f0f4"/>
    <ellipse id="Ellipse_3" data-name="Ellipse 3" cx="9.886" cy="12.864" rx="9.886" ry="12.864" transform="translate(225.17 419.968)" opacity="0.2"/>
    <rect id="Rectangle_25" data-name="Rectangle 25" width="37.007" height="8.717" rx="4.358" transform="matrix(0.994, 0.106, -0.106, 0.994, 219.605, 427.041)" opacity="0.1"/>
    <rect id="Rectangle_26" data-name="Rectangle 26" width="37.007" height="8.717" rx="4.358" transform="matrix(0.994, 0.106, -0.106, 0.994, 219.606, 426.323)" fill="#f0f0f4"/>
    <path id="Tracé_51" data-name="Tracé 51" d="M117.427,651.056s-17.741-17.508,3.807-59.649c0,0,27.627-41.8,70.5,3.931,0,0,24.649,27.5,31.79,71.443l-16.787.357S190.654,589.259,143.5,593.19C143.5,593.182,109.208,599.253,117.427,651.056Z" transform="translate(-46.216 -134.274)" opacity="0.1"/>
    <path id="Tracé_52" data-name="Tracé 52" d="M116.587,653.635s-17.749-17.5,3.807-59.658c0,0,27.627-41.793,70.5,3.931,0,0,24.649,27.511,31.8,71.443l-16.8.357s-16.1-77.863-63.249-73.94C142.646,595.769,108.351,601.84,116.587,653.635Z" transform="translate(-46.072 -134.713)" opacity="0.1"/>
    <path id="Tracé_53" data-name="Tracé 53" d="M116.587,651.916s-17.749-17.508,3.807-59.658c0,0,27.627-41.793,70.5,3.931,0,0,24.649,27.5,31.8,71.443l-16.8.357s-16.1-77.871-63.249-73.948C142.646,594.041,108.351,600.12,116.587,651.916Z" transform="translate(-46.072 -134.42)" fill="#045ba4"/>
    <path id="Tracé_54" data-name="Tracé 54" d="M116.587,651.916s-17.749-17.508,3.807-59.658c0,0,27.627-41.793,70.5,3.931,0,0,24.649,27.5,31.8,71.443l-16.8.357s-16.1-77.871-63.249-73.948C142.646,594.041,108.351,600.12,116.587,651.916Z" transform="translate(-46.072 -134.42)" opacity="0.2"/>
    <path id="Tracé_55" data-name="Tracé 55" d="M514.062,726.866v22.858L261.382,711.149c-12.383-4.288-19.773-1.659-19.773-1.659-9.123-4.454-15.758-21.829-15.949-22.393h0l16.8-.357,48.585,6.784,176.584,25.363s31.318,3.575,33.1,4.976S514.062,726.866,514.062,726.866Z" transform="translate(-65.854 -153.519)" fill="none"/>
    <path id="Tracé_56" data-name="Tracé 56" d="M514.062,726v22.858L261.382,710.279C249,706,241.609,708.62,241.609,708.62c-9.123-4.454-15.758-21.829-15.949-22.393h0l16.8-.357,48.585,6.784,176.584,25.363s31.318,3.575,33.1,4.976S514.062,726,514.062,726Z" transform="translate(-65.854 -153.371)" opacity="0.1"/>
    <path id="Tracé_57" data-name="Tracé 57" d="M514.062,726.866v22.858L261.382,711.149c-12.383-4.288-19.773-1.659-19.773-1.659-9.123-4.454-15.758-21.829-15.949-22.393h0l16.8-.357,48.585,6.784,176.584,25.363s31.318,3.575,33.1,4.976S514.062,726.866,514.062,726.866Z" transform="translate(-65.854 -153.519)" fill="#045ba4"/>
    <path id="Tracé_58" data-name="Tracé 58" d="M514.062,726.866v22.858L261.382,711.149c-12.383-4.288-19.773-1.659-19.773-1.659-9.123-4.454-15.758-21.829-15.949-22.393h0l16.8-.357,48.585,6.784,176.584,25.363s31.318,3.575,33.1,4.976S514.062,726.866,514.062,726.866Z" transform="translate(-64.646 -152.311)" opacity="0.2"/>
    <path id="Tracé_59" data-name="Tracé 59" d="M940.652,633.75s-84.307,42.871-188.271,38.583c0,0-23.372,1.153-25-.987s6.03,9.007,6.03,9.007,2.886-3.019,5.748-3.019,15.941.97,15.941.97,149.455-6.328,187.682-40.267Z" transform="translate(-151.417 -144.478)" fill="none"/>
    <path id="Tracé_60" data-name="Tracé 60" d="M301.288,666.362c-15.7-50.41-14.863-85.568-11.4-106.161,3.765-22.393,11.379-32.951,11.454-33.051l.572.423c-.075.1-7.6,10.583-11.329,32.81-3.45,20.552-4.28,55.527,11.387,105.8Z" transform="translate(-76.458 -126.291)" opacity="0.2"/>
    <path id="Tracé_61" data-name="Tracé 61" d="M913.245,642.281c.63,2.347,2.1,8.833-.232,10.583-.887.664-1.659,2.3-2.256,4.238a65.956,65.956,0,0,0-2.024,10.052l-24.3,27.146-41.079,16.082-98.241,6.784-59.3-96.449L552.57,542.357l36.377-2.015c36.385-2.024,139.668-24.882,139.668-24.882l116.836,25.81a78.3,78.3,0,0,1,46.86,30.862A159.872,159.872,0,0,1,913.046,613.6c1.758,2.107,2.438,5.557,2.538,9.339a73.554,73.554,0,0,1-2.049,16.53c-.29,1.252-.489,2-.489,2S913.112,641.75,913.245,642.281Z" transform="translate(-121.63 -124.296)" fill="#045ba4"/>
    <path id="Tracé_62" data-name="Tracé 62" d="M557.235,708.64s-7.141-76.411,46.446-97.146c0,0,75.375-31.815,119.672,54.64l22.5,49.307s6.428,12.142,23.936,11.786c0,0,82.516-2.488,126.067-30.364L909.433,681.1s-6.784,22.145-13.577,27.146c0,0-26.789,31.434-124.317,37.156,0,0-39.885,4.28-51.911-33.582,0,0-16.314-85.734-99.194-85.02,0,0-48.693.954-49.888,84.78Z" transform="translate(-122.372 -139.705)" opacity="0.1"/>
    <path id="Tracé_63" data-name="Tracé 63" d="M557.235,710.36s-7.141-76.4,46.446-97.146c0,0,75.375-31.807,119.672,54.64l22.5,49.3s6.428,12.142,23.936,11.786c0,0,82.516-2.488,126.067-30.364l13.619-15.717S902.691,705,895.9,710c0,0-26.789,31.442-124.317,37.156,0,0-39.885,4.288-51.911-33.582,0,0-16.314-85.734-99.194-85.02,0,0-48.693.962-49.888,84.788Z" transform="translate(-122.372 -139.999)" fill="#045ba4"/>
    <path id="Tracé_64" data-name="Tracé 64" d="M557.235,710.36s-7.141-76.4,46.446-97.146c0,0,75.375-31.807,119.672,54.64l22.5,49.3s6.428,12.142,23.936,11.786c0,0,82.516-2.488,126.067-30.364l13.619-15.717S902.691,705,895.9,710c0,0-26.789,31.442-124.317,37.156,0,0-39.885,4.288-51.911-33.582,0,0-16.314-85.734-99.194-85.02,0,0-48.693.962-49.888,84.788Z" transform="translate(-122.372 -139.999)" opacity="0.2"/>
    <path id="Tracé_65" data-name="Tracé 65" d="M539.05,697.8l-3.226-106.3a109.388,109.388,0,0,0-.829-21.564c-.1-.448-2.662-11.412-6.088-17.641-2.2-3.21-4.064-4.188-4.147-4.2l-1.9-.514,2.123-.158c1.468.282,2.861,1.808,4.147,3.94,2.339,3.21,5.092,8.849,6.544,18.462a109.346,109.346,0,0,1,.829,21.639l3.226,106.277Z" transform="translate(-116.561 -129.749)" opacity="0.2"/>
    <path id="Tracé_66" data-name="Tracé 66" d="M617.125,620.647l-.7.116a43.819,43.819,0,0,0-6.378-15.908c-10.259-14.688-13.61-24.649-13.992-31.3a17.137,17.137,0,0,1,.829-6.817c1.6-4.487,5.889-7.8,11.711-9.447h0l1.244.207c-5.6,1.576-10.782,5.225-12.316,9.48a16.737,16.737,0,0,0-.829,6.726c.415,6.511,3.774,16.281,13.867,30.754A43.9,43.9,0,0,1,617.125,620.647Z" transform="translate(-129.04 -131.433)" opacity="0.2"/>
    <path id="Tracé_67" data-name="Tracé 67" d="M867.965,580.931c-45.517-27.162-141.875-52.425-142.845-52.674l.182-.7c.97.257,97.428,25.545,143.028,52.757Z" transform="translate(-151.069 -126.361)" opacity="0.2"/>
    <path id="Tracé_68" data-name="Tracé 68" d="M941.425,617.077c-17.185-30.231-63.456-55.154-99.253-70.747a643.613,643.613,0,0,0-74.363-26.872l.191-.688a643.6,643.6,0,0,1,74.454,26.905c35.9,15.634,82.308,40.64,99.593,71.045Z" transform="translate(-158.353 -124.861)" opacity="0.2"/>
    <ellipse id="Ellipse_4" data-name="Ellipse 4" cx="8.228" cy="34.951" rx="8.228" ry="34.951" transform="matrix(0.799, -0.602, 0.602, 0.799, 735.524, 432.703)" opacity="0.1"/>
    <ellipse id="Ellipse_5" data-name="Ellipse 5" cx="8.228" cy="34.951" rx="8.228" ry="34.951" transform="matrix(0.799, -0.602, 0.602, 0.799, 735.528, 431.273)" fill="#dce0ed"/>
    <ellipse id="Ellipse_6" data-name="Ellipse 6" cx="5.341" cy="28.863" rx="5.341" ry="28.863" transform="matrix(0.799, -0.602, 0.602, 0.799, 742.444, 434.472)" opacity="0.1"/>
    <ellipse id="Ellipse_7" data-name="Ellipse 7" cx="5.341" cy="28.863" rx="5.341" ry="28.863" transform="matrix(0.799, -0.602, 0.602, 0.799, 742.446, 433.762)" fill="#f0f0f4"/>
    <path id="Tracé_69" data-name="Tracé 69" d="M849.231,650.289s2.322-17.508,16.082-21.44c0,0,46.794-13.536,56.979-13.735,0,0,10.533-3.226,17.5,4.628l7.141,9.646s4.976,7.863-6.071,9.289c0,0-56.556,20.735-81.081,22.891a34.6,34.6,0,0,0-4.147.63C852.051,662.946,844.528,663.161,849.231,650.289Z" transform="translate(-171.988 -141.187)" opacity="0.1"/>
    <path id="Tracé_70" data-name="Tracé 70" d="M850.1,649.429s2.323-17.508,16.074-21.44c0,0,46.794-13.536,56.979-13.734,0,0,10.533-3.235,17.5,4.628l7.149,9.646s4.976,7.854-6.079,9.289c0,0-56.547,20.735-81.072,22.891a34.421,34.421,0,0,0-4.147.63C852.912,662.085,845.389,662.3,850.1,649.429Z" transform="translate(-172.136 -141.04)" fill="#f0f0f4"/>
    <path id="Tracé_71" data-name="Tracé 71" d="M856.063,648.7s2.165-14.97,14.929-18.329c0,0,43.51-11.611,52.973-11.752,0,0,9.8-2.762,16.273,3.956l6.635,8.252s4.645,6.726-5.648,7.945c0,0-52.575,17.749-75.375,19.582a35.045,35.045,0,0,0-3.823.539C858.684,659.478,851.692,659.694,856.063,648.7Z" transform="translate(-173.172 -141.8)" opacity="0.1"/>
    <path id="Tracé_72" data-name="Tracé 72" d="M856.932,647.816s2.156-14.929,14.929-18.329c0,0,43.51-11.611,52.973-11.752,0,0,9.8-2.77,16.272,3.956l6.635,8.294s4.645,6.718-5.648,7.946c0,0-52.583,17.749-75.383,19.582a34.72,34.72,0,0,0-3.807.539C859.545,658.647,852.553,658.83,856.932,647.816Z" transform="translate(-173.32 -141.649)" fill="#636780"/>
    <path id="Tracé_73" data-name="Tracé 73" d="M861.631,639.042l-.091-.713c.639-.075,64.186-7.97,77.863-18.528l.44.564C926.008,631.022,864.252,638.7,861.631,639.042Z" transform="translate(-174.344 -142.098)" fill="#f0f0f4"/>
    <path id="Tracé_74" data-name="Tracé 74" d="M857.594,648.168l-.124-.705c.7-.124,70.606-13.071,85.684-22.393l.382.605C928.341,635.072,858.3,648.036,857.594,648.168Z" transform="translate(-173.65 -142.997)" fill="#f0f0f4"/>
    <path id="Tracé_75" data-name="Tracé 75" d="M855.6,655.96l-.133-.7c.829-.158,81.28-15.344,91.232-24.243l.473.531C937.115,640.583,858.92,655.338,855.6,655.96Z" transform="translate(-173.309 -144.013)" fill="#f0f0f4"/>
    <path id="Tracé_76" data-name="Tracé 76" d="M939.041,660.164s-30.322,12.648-62.2,18.321q-4.23.763-8.368,1.891c-3.235.879-7.83,1.874-10.326,1.228-4.106-1.078-6.378,3.923-1.941,7.854l.282.249a15.866,15.866,0,0,0,11.8,3.9l6.826-.572s55.378-12.142,70.821-21.614c0,0,7.05-4.835,7.589-10.276s1.178-9.729-4.412-6.511S939.041,660.164,939.041,660.164Z" transform="translate(-173.021 -147.852)" opacity="0.1"/>
    <path id="Tracé_77" data-name="Tracé 77" d="M939.859,659.341c-1.128.464-30.895,12.739-62.2,18.3q-4.23.755-8.368,1.891c-3.226.879-7.829,1.874-10.326,1.227-4.147-1.078-6.378,3.923-1.941,7.854l.133.116a16.306,16.306,0,0,0,12.167,4.039l6.569-.547H876c1.9-.415,55.569-12.283,70.746-21.564h.058c.473-.34,7.042-5.018,7.556-10.259.539-5.441,1.186-9.729-4.412-6.511-5.316,3.052-9.621,5.308-10.019,5.515Z" transform="translate(-173.159 -147.726)" fill="#f0f0f4"/>
    <path id="Tracé_78" data-name="Tracé 78" d="M937.818,664.418a347.9,347.9,0,0,1-51.6,16.231c-2.654.581-5.283,1.261-7.9,2.015s-6.345,1.659-8.418,1.393c-3.55-.473-5.242,3.069-1.261,5.449l.125.075a15.368,15.368,0,0,0,10.027,2.024l6.154-.829s46.6-11.727,59.293-19.126c0,0,5.806-3.724,5.955-7.464s.514-6.635-4.089-4.147S937.818,664.418,937.818,664.418Z" transform="translate(-175.165 -148.805)" opacity="0.1"/>
    <path id="Tracé_79" data-name="Tracé 79" d="M938.67,663.563a348.04,348.04,0,0,1-51.58,16.231c-2.654.581-5.291,1.261-7.9,2.015s-6.337,1.659-8.418,1.393c-3.55-.473-5.242,3.06-1.252,5.449h0a15.759,15.759,0,0,0,10.284,2.082l5.988-.829h0c.962-.24,46.694-11.794,59.268-19.076h0c.2-.133,5.806-3.79,5.947-7.465s.514-6.677-4.089-4.147-8.086,4.28-8.294,4.379Z" transform="translate(-175.312 -148.664)" fill="#636780"/>
    <ellipse id="Ellipse_8" data-name="Ellipse 8" cx="9.392" cy="6.951" rx="9.392" ry="6.951" transform="translate(647.551 554.254) rotate(-87.138)" opacity="0.1"/>
    <ellipse id="Ellipse_9" data-name="Ellipse 9" cx="9.38" cy="6.942" rx="9.38" ry="6.942" transform="matrix(0.05, -0.999, 0.999, 0.05, 647.367, 554.204)" fill="#f0f0f4"/>
    <path id="Tracé_80" data-name="Tracé 80" d="M860.08,709.7s-36.368,5.54-46.014,6.079-11.1,5.889-11.1,5.889-2.322,13.577,11.072,9.646l47.507-5.358s6.436.182,6.436-8.576v-1.966a19.765,19.765,0,0,1,.332-3.276C868.573,710.774,867.868,708.551,860.08,709.7Z" transform="translate(-164.325 -157.383)" opacity="0.1"/>
    <path id="Tracé_81" data-name="Tracé 81" d="M860.945,708.844s-36.369,5.54-46.014,6.071-11.072,5.9-11.072,5.9-2.322,13.577,11.072,9.646l47.515-5.358s6.428.182,6.428-8.576v-1.966a19.765,19.765,0,0,1,.332-3.276C869.471,709.914,868.733,707.691,860.945,708.844Z" transform="translate(-164.477 -157.236)" fill="#f0f0f4"/>
    <path id="Tracé_82" data-name="Tracé 82" d="M983.961,678.953c-.887.663-1.659,2.3-2.256,4.238h0l-11.777,8.344a.962.962,0,0,1-1.518-.78V682a7.274,7.274,0,0,1,3.525-6.237l12.258-7.39C984.824,670.717,986.316,677.186,983.961,678.953Z" transform="translate(-192.578 -150.385)" fill="#f0f0f4"/>
    <path id="Tracé_83" data-name="Tracé 83" d="M886.544,704.942,886,713.8a5.914,5.914,0,0,0,6.718,6.32A162.725,162.725,0,0,0,949.56,699.7l1.551-18.1a2.546,2.546,0,0,0-3.541-2.6c-9.953,4.437-36.634,15.808-53.57,17.981A8.6,8.6,0,0,0,886.544,704.942Z" transform="translate(-178.514 -152.164)" fill="#636780"/>
    <path id="Tracé_84" data-name="Tracé 84" d="M893.26,701.367v14.4s44.3-10.467,54.117-17.525V684.58a222.513,222.513,0,0,1-54.117,16.787Z" transform="translate(-179.756 -153.151)" fill="#045ba4"/>
    <path id="Tracé_85" data-name="Tracé 85" d="M986.057,662.215c-2.248-.158-4.047-4.014-4.047-8.734s1.874-8.742,4.147-8.742a2.638,2.638,0,0,1,1.9.937A71.281,71.281,0,0,1,986.057,662.215Z" transform="translate(-194.898 -146.353)" fill="#6c63ff"/>
    <path id="Tracé_86" data-name="Tracé 86" d="M986.919,661.345c-2.248-.149-4.039-4.006-4.039-8.725s1.866-8.75,4.147-8.75a2.679,2.679,0,0,1,1.907.945A71.923,71.923,0,0,1,986.919,661.345Z" transform="translate(-195.047 -146.205)" fill="#f0f0f4"/>
    <path id="Tracé_87" data-name="Tracé 87" d="M716.333,722.042c0,78.5-33.175,80.2-76.444,80.2-34.569,0-48.718-35.9-48.718-80.2s11.105-80.1,45.666-80.1S716.333,677.753,716.333,722.042Z" transform="translate(-128.215 -145.876)" fill="#636780"/>
    <path id="Tracé_88" data-name="Tracé 88" d="M716.333,722.042c0,78.5-33.175,80.2-76.444,80.2-34.569,0-48.718-35.9-48.718-80.2s11.105-80.1,45.666-80.1S716.333,677.753,716.333,722.042Z" transform="translate(-128.215 -145.876)" opacity="0.2"/>
    <ellipse id="Ellipse_10" data-name="Ellipse 10" cx="43.609" cy="80.202" rx="43.609" ry="80.202" transform="translate(462.955 495.965)" fill="#636780"/>
    <path id="Tracé_89" data-name="Tracé 89" d="M182.284,671.774c0,24.052-6.967,43.344-21.44,43.344S129.17,695.6,129.17,671.533s6.013-45.243,20.486-45.243S182.284,647.7,182.284,671.774Z" transform="translate(-49.391 -143.206)" fill="#f0f0f4"/>
    <path id="Tracé_90" data-name="Tracé 90" d="M184.39,672.355q0,2.737-.149,5.374a68.011,68.011,0,0,1-2.024,13.7c-2.347,8.858-6.635,15.012-12.889,16.181a12.188,12.188,0,0,1-2.231.2,17.524,17.524,0,0,1-9.256-3c-5.963-3.8-11.462-10.89-14.257-19.756a42,42,0,0,1-1.916-10.044c-.066-.929-.1-1.874-.1-2.82a88.429,88.429,0,0,1,1.949-19.5,35.9,35.9,0,0,1,4.213-11.081c2.554-4.022,5.947-6.419,10.293-6.419a17.036,17.036,0,0,1,9.065,3.06,35.323,35.323,0,0,1,9.953,10.293,44.048,44.048,0,0,1,7.348,23.812Z" transform="translate(-51.506 -144.724)" fill="#636780"/>
    <path id="Tracé_91" data-name="Tracé 91" d="M184.237,678.39a68.01,68.01,0,0,1-2.007,13.668c-.3-.34-8.493-9.812-14.647-3.732-4.52,4.454-.713,14.6,1.758,19.905a12.188,12.188,0,0,1-2.231.2,17.524,17.524,0,0,1-9.256-3v-.68s3.641-11.346-6.071-18.338c0,0-4.719-1.874-8.228-.746a42,42,0,0,1-1.916-10.044c.829-.655,6.511-5.524,4.188-14.7a66.789,66.789,0,0,0-2.339-7.622,35.9,35.9,0,0,1,4.255-11.064s1.866,10.127,9.007,10.732,10.259-13.7,10.351-14.1a35.325,35.325,0,0,1,9.953,10.293s-11.4,4.744-8.078,17.367C171.415,675.471,179.676,677.8,184.237,678.39Z" transform="translate(-51.519 -145.352)" fill="#f0f0f4"/>
    <ellipse id="Ellipse_11" data-name="Ellipse 11" cx="5.357" cy="9.288" rx="5.357" ry="9.288" transform="translate(101.877 517.191) rotate(-8.049)" fill="#636780"/>
    <path id="Tracé_92" data-name="Tracé 92" d="M643.282,731.344c0,28.838-6.146,51.936-18.91,51.936S596.43,759.9,596.43,731.029s5.308-54.209,18.072-54.209S643.282,702.506,643.282,731.344Z" transform="translate(-129.113 -151.827)" fill="#f0f0f4"/>
    <path id="Tracé_93" data-name="Tracé 93" d="M645.146,732.085q0,3.318-.133,6.444a109.358,109.358,0,0,1-1.792,16.389c-2.065,10.616-5.806,17.981-11.371,19.391a8.508,8.508,0,0,1-1.966.232c-2.671,0-5.474-1.277-8.161-3.6-5.291-4.553-10.118-13.1-12.615-23.679a67.232,67.232,0,0,1-1.659-12.034c-.058-1.111-.091-2.239-.091-3.384a141.92,141.92,0,0,1,1.725-23.355,52.678,52.678,0,0,1,3.782-13.27c2.256-4.819,5.25-7.688,9.082-7.688,2.579,0,5.325,1.319,8,3.666a39.376,39.376,0,0,1,8.808,12.333,66.855,66.855,0,0,1,6.394,28.556Z" transform="translate(-130.977 -153.654)" fill="#636780"/>
    <path id="Tracé_94" data-name="Tracé 94" d="M645.033,739.261a109.344,109.344,0,0,1-1.791,16.389c-.257-.415-7.465-11.761-12.922-4.479-3.981,5.341-.63,17.492,1.551,23.87a8.495,8.495,0,0,1-1.966.232c-2.671,0-5.474-1.277-8.161-3.6v-.829s3.21-13.594-5.358-21.97c0,0-4.147-2.248-7.257-.9a67.226,67.226,0,0,1-1.659-12.034c.73-.788,5.739-6.635,3.691-17.608-.78-4.147-1.476-7.108-2.057-9.123a52.669,52.669,0,0,1,3.782-13.27s1.659,12.142,7.946,12.855,9.048-16.405,9.123-16.878a39.378,39.378,0,0,1,8.808,12.333s-10.06,5.69-7.124,20.809C633.7,735.819,640.994,738.573,645.033,739.261Z" transform="translate(-130.996 -154.403)" fill="#f0f0f4"/>
    <ellipse id="Ellipse_12" data-name="Ellipse 12" cx="4.744" cy="11.089" rx="4.744" ry="11.089" transform="translate(484.892 566.58) rotate(-4.68)" fill="#636780"/>
    <path id="Tracé_95" data-name="Tracé 95" d="M552.57,547.89" transform="translate(-121.63 -129.829)"/>
    <path id="Tracé_96" data-name="Tracé 96" d="M732.584,583.691l-.29.655c-.282-.133-24.981-10.782-116.57-26.325q-6.419-1.087-13.27-2.214c-.423-.058-.829-.133-1.269-.2-14.655-2.389-30.837-4.868-48.685-7.464l.1-.713c24.177,3.483,45.284,6.8,63.7,9.953C707.653,572.909,732.294,583.566,732.584,583.691Z" transform="translate(-121.618 -129.751)" opacity="0.2"/>
    <path id="Tracé_97" data-name="Tracé 97" d="M209.86,421.938s8.294-14.1,36.675-15.352c0,0,207.429-27.1,338.389,1.062,0,0,11.18,4.976-.954,7.9S292.973,428.557,209.86,421.938Z" transform="translate(-63.158 -103.719)" opacity="0.1"/>
    <path id="Tracé_98" data-name="Tracé 98" d="M209.86,420.218s8.294-14.1,36.675-15.36c0,0,207.429-27.088,338.389,1.07,0,0,11.18,4.976-.954,7.9S292.973,426.836,209.86,420.218Z" transform="translate(-63.158 -103.425)" fill="#fff"/>
    <path id="Tracé_99" data-name="Tracé 99" d="M186.181,486.379c12.88-30.322,28.34-44.662,33.233-48.668a5.54,5.54,0,0,1,3.4-1.244l67.86-1.261a5.5,5.5,0,0,1,4.669,2.405,5.549,5.549,0,0,0-5.383-3.832L222.1,435.04a5.474,5.474,0,0,0-3.4,1.244c-4.893,4-20.353,18.338-33.233,48.66a7.307,7.307,0,0,0,.589,6.867A7.3,7.3,0,0,1,186.181,486.379Z" transform="translate(-58.896 -110.36)" opacity="0.1"/>
    <path id="Tracé_100" data-name="Tracé 100" d="M333.335,489.5l9.248-42.025c1.659-7.606,7.945-13,15.194-13.063l87.4-.829a14.1,14.1,0,0,1,9.123,3.268,14.257,14.257,0,0,0-10.517-4.6l-87.4.829c-7.257.075-13.527,5.466-15.194,13.071L331.9,488.167a19.076,19.076,0,0,0,6.154,18.744A19.217,19.217,0,0,1,333.335,489.5Z" transform="translate(-83.897 -110.099)" opacity="0.1"/>
    <path id="Tracé_101" data-name="Tracé 101" d="M554.174,505.257l-30.936-64.128a6.021,6.021,0,0,1,5.308-8.634c23.563-.431,85.493-2.2,117.408-9.206-2.007-1.568-3.16-2.438-3.16-2.438-31.517,7.257-94.824,9.065-118.718,9.5a6.021,6.021,0,0,0-5.308,8.634l30.944,64.1a22.078,22.078,0,0,0,12.656,11.28A22.037,22.037,0,0,1,554.174,505.257Z" transform="translate(-115.761 -108.154)" opacity="0.1"/>
    <rect id="Rectangle_27" data-name="Rectangle 27" width="13.337" height="4.105" transform="translate(434.872 570.361)" fill="#045ba4"/>
    <rect id="Rectangle_28" data-name="Rectangle 28" width="13.337" height="4.105" transform="translate(434.872 570.361)" opacity="0.2"/>
    <path id="Tracé_102" data-name="Tracé 102" d="M241.787,682.53l-16.4,2.828a8.5,8.5,0,0,0,.473,1.659c.323.829,18.246-.639,18.246-.639l-1.725-.357Z" transform="translate(-65.808 -152.801)" fill="#035aa4"/>
    <path id="Tracé_103" data-name="Tracé 103" d="M241.787,682.53l-16.4,2.828a8.5,8.5,0,0,0,.473,1.659c.323.829,18.246-.639,18.246-.639l-1.725-.357Z" transform="translate(-65.808 -152.801)" opacity="0.2"/>
    <path id="Tracé_104" data-name="Tracé 104" d="M163.507,713.9c-14.464,0-31.674-19.516-31.674-43.584,0-16.5,2.828-31.641,9.264-39.529-8.294,6.693-11.927,23.571-11.927,42.191,0,24.052,17.21,43.584,31.674,43.584,4.893,0,8.916-2.206,12.117-6.055a14.605,14.605,0,0,1-9.455,3.392Z" transform="translate(-49.391 -143.973)" opacity="0.1"/>
    <path id="Tracé_105" data-name="Tracé 105" d="M627.215,780.79c-12.955,0-28.365-23.43-28.365-52.334,0-19.814,2.488-37.994,8.294-47.466-7.464,8.037-10.674,28.307-10.674,50.667,0,28.9,15.41,52.334,28.365,52.334,4.379,0,7.987-2.654,10.848-7.266A11.293,11.293,0,0,1,627.215,780.79Z" transform="translate(-129.12 -152.538)" opacity="0.1"/>
    <ellipse id="Ellipse_13" data-name="Ellipse 13" cx="21.348" cy="41.677" rx="21.348" ry="41.677" transform="translate(578.118 472.129) rotate(-45)" opacity="0.1"/>
    <ellipse id="Ellipse_14" data-name="Ellipse 14" cx="21.348" cy="41.677" rx="21.348" ry="41.677" transform="translate(578.831 471.419) rotate(-45)" fill="#dce0ed"/>
    <ellipse id="Ellipse_15" data-name="Ellipse 15" cx="15.651" cy="35.365" rx="15.651" ry="35.365" transform="translate(589.368 471.233) rotate(-45)" opacity="0.1"/>
    <ellipse id="Ellipse_16" data-name="Ellipse 16" cx="15.651" cy="35.365" rx="15.651" ry="35.365" transform="translate(589.37 470.513) rotate(-45)" fill="#f0f0f4"/>
    <path id="Tracé_106" data-name="Tracé 106" d="M1079.036,795.121s-35.066-2.115-30.936,22.46c0,0-.829,4.338,3.118,6.312,0,0,.058-1.816,3.6-1.2a16.009,16.009,0,0,0,3.807.182,7.88,7.88,0,0,0,4.653-1.924h0s9.861-4.072,13.693-20.179c0,0,2.836-3.517,2.72-4.421l-5.914,2.488s2.024,4.271.431,7.821c0,0-.191-7.664-1.327-7.465-.232,0-3.077,1.476-3.077,1.476s3.483,7.464.829,12.839c0,0,1-9.123-1.941-12.3l-4.147,2.43s4.064,7.68,1.311,13.95c0,0,.7-9.612-2.19-13.361l-3.774,2.944s3.823,7.572,1.493,12.773c0,0-.307-11.188-2.314-12.034,0,0-3.317,2.911-3.8,4.105,0,0,2.613,5.491.987,8.393,0,0-1-7.464-1.808-7.464,0,0-3.317,4.976-3.633,8.294a17.958,17.958,0,0,1,2.837-8.8,9.878,9.878,0,0,0-5.034,2.613s.506-3.492,5.806-3.8c0,0,2.72-3.749,3.442-3.973,0,0-5.308-.448-8.526.979,0,0,2.837-3.318,9.5-1.8l3.724-3.036s-6.992-.962-9.953.1c0,0,3.409-2.919,10.956-.829l4.056-2.422s-5.955-1.286-9.5-.829c0,0,3.741-2.024,10.7.166l2.895-1.3s-4.363-.829-5.64-.987-1.352-.489-1.352-.489a15.146,15.146,0,0,1,8.2.912S1079.136,795.51,1079.036,795.121Z" transform="translate(-206.117 -172.003)" fill="#045ba4"/>
    <ellipse id="Ellipse_17" data-name="Ellipse 17" cx="24.815" cy="4.197" rx="24.815" ry="4.197" transform="translate(823.953 649.832)" fill="#367cb6" opacity="0.1"/>
    <ellipse id="Ellipse_18" data-name="Ellipse 18" cx="13.992" cy="2.364" rx="13.992" ry="2.364" transform="translate(912.573 573.438)" fill="#367cb6" opacity="0.1"/>
    <path id="Tracé_107" data-name="Tracé 107" d="M1021.5,731.554s-23.87-1.435-21.058,15.286a4.089,4.089,0,0,0,2.123,4.3s.042-1.244,2.488-.829a10.9,10.9,0,0,0,2.6.124,5.408,5.408,0,0,0,3.168-1.31h0s6.71-2.77,9.322-13.735c0,0,1.924-2.4,1.849-3.011l-4.022,1.717s1.369,2.911.29,5.325c0,0-.133-5.217-.9-5.092-.158,0-2.09,1-2.09,1s2.364,5.068.581,8.742c0,0,.672-6.237-1.327-8.369l-2.828,1.659s2.762,5.233.887,9.5c0,0,.481-6.544-1.485-9.123l-2.571,2s2.6,5.159,1.012,8.692c0,0-.207-7.614-1.568-8.194a15.722,15.722,0,0,0-2.6,2.8s1.783,3.741.68,5.715c0,0-.68-5.076-1.236-5.1,0,0-2.239,3.318-2.488,5.665a12.25,12.25,0,0,1,1.932-5.988,6.784,6.784,0,0,0-3.434,1.775s.348-2.372,3.981-2.579c0,0,1.858-2.555,2.347-2.712,0,0-3.608-.3-5.806.672,0,0,1.932-2.239,6.469-1.219l2.538-2.073s-4.761-.655-6.776.066c0,0,2.322-1.982,7.464-.539l2.762-1.659a25.074,25.074,0,0,0-6.469-.556s2.546-1.377,7.282.116l1.974-.887s-2.969-.589-3.84-.68-.921-.332-.921-.332a10.309,10.309,0,0,1,5.582.622S1021.6,731.819,1021.5,731.554Z" transform="translate(-198.004 -161.16)" fill="#045ba4"/>
    <ellipse id="Ellipse_19" data-name="Ellipse 19" cx="16.895" cy="2.853" rx="16.895" ry="2.853" transform="translate(790.164 588.582)" fill="#367cb6" opacity="0.1"/>
    <ellipse id="Ellipse_20" data-name="Ellipse 20" cx="24.815" cy="4.197" rx="24.815" ry="4.197" transform="translate(0 613.157)" fill="#367cb6" opacity="0.1"/>
    <path id="Tracé_108" data-name="Tracé 108" d="M42.81,763.1s14.149-.431,18.421-3.475S83,752.989,84.064,757.832s21.274,24.235,5.291,24.359S52.224,779.7,47.96,777.107,42.81,763.1,42.81,763.1Z" transform="translate(-34.657 -165.244)" fill="#a8a8a8"/>
    <path id="Tracé_109" data-name="Tracé 109" d="M89.635,782.067c-15.982.124-37.132-2.488-41.386-5.084-3.243-1.974-4.537-9.065-4.976-12.333H42.8s.9,11.421,5.15,14.008,25.412,5.217,41.395,5.084c4.611,0,6.2-1.659,6.121-4.147C94.827,781.122,93.069,782.034,89.635,782.067Z" transform="translate(-34.655 -166.812)" opacity="0.2"/>
    <path id="Tracé_110" data-name="Tracé 110" d="M653.97,487.5c2.372-6.37-1.858-13.079-1.858-13.079l-.34-14.581c1.866-3.857-4.562-13.411-4.562-13.411s-1.526-7.216-2.878-7.879-2.87-3.691-2.87-3.691a2.231,2.231,0,0,0-1.294-1.974A95.852,95.852,0,0,1,634,419.33c-.946-2.588-1.783-5.35-1.244-8.053a14.317,14.317,0,0,1,.605-2.007c.058-.141.108-.274.158-.415s0-.116.066-.166l.058-.149a10.4,10.4,0,0,0,1-4.3c-.191-3.11-3.052-5.383-5.9-6.7s-6.038-2.173-8.294-4.371c-2.8-2.745-3.45-6.917-4.147-10.782s-1.659-8.037-4.827-10.359c-2.8-2.057-6.635-2.1-10.06-1.518a33.515,33.515,0,0,0-12.972,5.167c-3.774,2.538-7.141,5.9-11.5,7.216-1.6.481-3.318.672-4.877,1.194a12.035,12.035,0,0,0-7.257,7.265h0c-.058.158-.1.315-.158.473s-.133.39-.191.589-.083.34-.116.506-.1.39-.133.589-.058.34-.075.506-.058.406-.075.605a4.944,4.944,0,0,0,0,.5v.63a26.583,26.583,0,0,0-4.645,5.806c-5.573,8.841-12.515,21.622-15.6,27.37l-.149.282v-.174s-13.61,13.66-5.665,11.819a16.238,16.238,0,0,1,1.659-.3l-.141,1.559v.042c-1.269,1.592-6.768,7.1,3.458,11.18,8.485,3.384,25.827,4.246,31.517,4.445l-.5,2.4c-8.792,7.207-5.408,15.427-5.573,20.793S567.4,492.7,567.4,492.7s-3.724,6.038-3.21,9.223-2.7,8.385-2.7,8.385-4.736,5.192-4.23,8.551a21.058,21.058,0,0,1-.829,7.7s-3.21,5.872-1.858,9.223.68,5.2.68,5.2-6.934,1-7.464,4.694-6.76,5.026-6.76,5.026-11.155,4.023-13.867,5.872-17.069,15.252-17.069,15.252-14.423,14.838-15.186,16.331-9.256,7.921-5.325,13.959c.2.3.4.605.606.9a51.365,51.365,0,0,0,15.6,14.788c2.72,1.659,5.432,3.55,6.237,4.8,1.775,2.77,31.45,21.755,31.45,21.755s13.038,11.462,21.431,19.449l.639,3.84c-.108.166-.216.34-.324.539a2.331,2.331,0,0,0,.829,2.272l.116.68s3.384,28.506,6.428,41.834a34.664,34.664,0,0,1-.614,18.96c-3.152-3.492-3.525-4.752-3.525-4.752a35.875,35.875,0,0,0-2.156,7.025c-.05.357-.083.688-.1,1a.257.257,0,0,0-.224.1l-1.186,1.659c-1.294,1.783-2.43,3.682-3.583,5.557-2.662,4.321-11.014,6.337-11.014,6.337a8.2,8.2,0,0,1-2.239.829,25.713,25.713,0,0,1-7.1.216,11.617,11.617,0,0,0-2.1.514,8.132,8.132,0,0,0-1.592.73h0c-3.641,2.356-2.314,6.7-2.314,6.7h0l.091.058.091.058.149.091.224.141.191.108.2.124.207.116.257.141.216.125.547.29.257.141.357.182.29.141.39.191.382.174c.216.108.44.207.672.307l.39.174.448.182.431.174.448.174.829.307.415.141.589.2.448.141.68.2.373.1c.34.1.688.182,1.045.266l.348.075c.274.066.547.124.829.174l.207.05h.174c.3.058.6.1.9.149h.265l1.194.141h.274c.315,0,.63.05.954.066h1.675q.622,0,1.244-.05h.257l1.02-.1.448-.066.9-.149.423-.083c.431-.091.829-.191,1.3-.307a80.931,80.931,0,0,1,29.029-2.488c7.464.63,9.339-1.924,9.339-1.924a4.436,4.436,0,0,0,.373-.639,2.391,2.391,0,0,0,.108-.257,4.45,4.45,0,0,0,.174-.464,1.582,1.582,0,0,1,.091-.323c.025-.108.075-.323.108-.489s0-.232.058-.348,0-.133,0-.2a4.644,4.644,0,0,0,.041-.49,18.441,18.441,0,0,0-.3-4.3,49.317,49.317,0,0,0-2.72-9.123l-.531.365q-.091-.406-.174-.829c-1.825-9.828-2.488-33.408-2.488-35.9h0a4.47,4.47,0,0,0,2.836-.979c.141-.116.216-.191.216-.191,6.336-5.151,3.226-28.672,1.136-31.94s-2.488-20.054-3.235-25.4c-.357-2.538-1.659-3.276-3.425-3.318a7.3,7.3,0,0,0-.738,0c-.249-4.976.481-16.679,1.045-24.666h0c0-.514.075-1.02.108-1.5l1.6.083,2.364-14.1s1.36-5.142,9.654-19.9,9.123-30.845,9.123-30.845,2.538-4.86,1.858-7.041c-.174-.564-.448-2.156-.771-4.222a55.25,55.25,0,0,1,8.866-4.329c8.866-3.583,15.518-10.293,18.6-13.619l.489-.531a37.312,37.312,0,0,1,2.09,3.591s7.274-5.034,10.989-9.4a5.755,5.755,0,0,0,.937-1.659c2.239-5.573-.05-17.492-.05-17.492C657.594,492.2,653.97,487.5,653.97,487.5Z" transform="translate(-110.706 -99.51)" fill="url(#linear-gradient)"/>
    <g id="Groupe_5" data-name="Groupe 5" transform="translate(500.396 382.488)" opacity="0.1">
      <path id="Tracé_111" data-name="Tracé 111" d="M642.581,544.421c-.34.622-2.778,2.082-5.748,3.691-.274-2.165-.473-3.8-.514-4.3-.174-1.849,3.774-10.135,3.774-10.135s7.556-10.135,7.382-11.661,2.919-5.905,2.919-5.905L657.244,505a4.976,4.976,0,0,0,.7,5.2c2.065,2.7.34,8.111.34,8.111l.423,6.818v.68c-.24.24-1.344,1.294-3.782,3.492-2.248,2.024-1.85,2.646-1.592,2.812-.514.912.116,1.07.116,1.07a3.636,3.636,0,0,0,.6-.05l-.547.506C649.324,537.553,643.194,543.318,642.581,544.421Z" transform="translate(-636.313 -505)" fill="url(#linear-gradient-2)"/>
    </g>
    <path id="Tracé_112" data-name="Tracé 112" d="M585.38,400.342c-2.049,2.14.282,5.142-1.31,7.464-.9,1.3-2.895,2.123-4.022,3.318-2.2,2.389-.539,5.441.522,8.161,3.881,9.9-1.941,21.191-14.1,27.37a25.47,25.47,0,0,0,16.712,1.368c5.441-1.451,9.629-4.844,10.724-8.692.829-2.729.116-5.632,1.518-8.244,2.181-4.072,8.858-6.519,10.832-10.633,1.543-3.226-.141-6.71-2.107-9.828a78.02,78.02,0,0,0-8.4-10.964c-1.907-2.082-1.907-2.9-4.976-2.347A14.688,14.688,0,0,0,585.38,400.342Z" transform="translate(-124.001 -104.11)" fill="#33292e"/>
    <path id="Tracé_113" data-name="Tracé 113" d="M608.111,434.4a31.872,31.872,0,0,1-1.949,8.592,44.588,44.588,0,0,1-4.354,10.2,15.172,15.172,0,0,1-8.518,6.759,10.666,10.666,0,0,0,8.874,2.563c2.281-.406,4.586-1.559,6.793-.829a21.625,21.625,0,0,1,2.928,1.568c3.251,1.659,7.464.431,9.82-2.364a11.156,11.156,0,0,0,1.717-10.318c-.664-2.1-1.849-4.014-2.488-6.137-.9-3.135-.547-6.635-2.065-9.521-2.206-4.147-8.294-6.635-12.491-8.294C606.17,428.876,608.211,431.746,608.111,434.4Z" transform="translate(-128.577 -109.139)" fill="#985c7e"/>
    <path id="Tracé_114" data-name="Tracé 114" d="M601.183,425.063a31.888,31.888,0,0,1-1.949,8.568,43.563,43.563,0,0,1-4.354,10.2,15.216,15.216,0,0,1-8.51,6.759,10.616,10.616,0,0,0,8.866,2.563c2.281-.4,4.586-1.559,6.793-.829a20.692,20.692,0,0,1,2.928,1.559c3.251,1.659,7.464.431,9.82-2.364a11.13,11.13,0,0,0,1.717-10.318c-.663-2.1-1.849-4.014-2.488-6.137-.9-3.135-.547-6.635-2.065-9.521-2.206-4.147-8.335-6.635-12.491-8.294C599.242,419.531,601.282,422.367,601.183,425.063Z" transform="translate(-127.396 -107.54)" fill="#33292e"/>
    <path id="Tracé_115" data-name="Tracé 115" d="M601.695,654s-2.488,30.422-1.418,34.494,2.919,59.1,2.919,59.1.746,32.081,3.243,38.815-16.878,4.819-17.542,4.736-5.482-13.718-5.482-13.718,4.736-8.294,1.742-21.564-6.312-41.469-6.312-41.469l-5.507-33.217s.747-7.813-2.156-12.217-6.635-33.242-5.806-35.738,20.585-7.979,20.585-7.979l8.51,11.139Z" transform="translate(-123.795 -143.028)" fill="#ecb4b6"/>
    <path id="Tracé_116" data-name="Tracé 116" d="M565.667,639.6v.589c.058.547.116,1.128.182,1.725,1.037,9.629,3.417,24.052,5.4,27.063s2.264,7.622,2.239,10.226v.829a8.728,8.728,0,0,1-.066,1.178l4.222,25.57.182,1.086,1.086,6.594s3.318,28.266,6.32,41.469a35.008,35.008,0,0,1-.382,18.1c-.083.274-.166.539-.249.779a16.878,16.878,0,0,1-1.12,2.646s.68,1.924,1.568,4.338l.614,1.659c.116.3.224.589.332.887,1.286,3.392,2.646,6.784,2.978,6.826.655.083,20.03,1.991,17.533-4.736a19.9,19.9,0,0,1-.746-3c-1.9-10.293-2.488-35.813-2.488-35.813s-1.825-55.021-2.911-59.1c-.713-2.712.149-17.094.829-26.408h0c.323-4.669.605-8.062.605-8.062l-7.232-17.616-8.51-11.139s-14.182,3.94-19.018,6.635l-.141.075a3.266,3.266,0,0,0-1.427,1.244A28.324,28.324,0,0,0,565.667,639.6Z" transform="translate(-123.812 -143.033)" opacity="0.07"/>
    <path id="Tracé_117" data-name="Tracé 117" d="M581.23,688.89s9.389,2.488,8.559,5.233Z" transform="translate(-126.52 -153.886)" opacity="0.05"/>
    <path id="Tracé_118" data-name="Tracé 118" d="M587.25,808.039s1.02,2.878,2.181,6c1.327.63,2.339,1.02,2.339,1.02s3.616-3.359-1.161-8.294c-.771-.829-1.427-1.5-1.991-2.14a18.332,18.332,0,0,1-1.368,3.409Z" transform="translate(-127.547 -173.633)" opacity="0.1"/>
    <path id="Tracé_119" data-name="Tracé 119" d="M581.708,808.837c.365,1.991,4.736,4.2,7.1,5.267.9.4,1.509.639,1.509.639a4.57,4.57,0,0,0,1-1.592c.547-1.451.647-3.815-2.165-6.726-.663-.68-1.236-1.294-1.742-1.858-3.168-3.525-3.542-4.786-3.542-4.786a36.151,36.151,0,0,0-2.107,6.967A6.681,6.681,0,0,0,581.708,808.837Z" transform="translate(-126.592 -172.805)" fill="#892438"/>
    <path id="Tracé_120" data-name="Tracé 120" d="M581.708,810.27c.365,1.991,4.736,4.2,7.1,5.266,1.286,3.392,2.646,6.784,2.978,6.826.655.083,20.03,1.991,17.533-4.736a19.9,19.9,0,0,1-.747-3l-5.374,3.79c-2.737,1.949-6.851.5-6.851.5l-5.026-4.329-1.252-1.07a7.462,7.462,0,0,1-2.206-.531,10.665,10.665,0,0,1-4.321-3.467c-.954-1.012-1.493-1.294-1.775-1.335A6.685,6.685,0,0,0,581.708,810.27Z" transform="translate(-126.592 -174.239)" opacity="0.1"/>
    <path id="Tracé_121" data-name="Tracé 121" d="M544.452,831.788a34.318,34.318,0,0,0,11.885,4.761,24.052,24.052,0,0,0,10.848-.307,78.955,78.955,0,0,1,28.506-2.488c7.315.622,9.181-1.908,9.181-1.908,1.219-1.659,1.178-4.545.688-7.465a49.449,49.449,0,0,0-2.637-9.049s-3.318,2.331-6.071,4.28-6.851.506-6.851.506l-6.278-5.408c-3.989-.29-6.527-3.989-6.527-3.989-1.75-1.874-2.107-1.252-2.107-1.252l-1.194,1.609c-1.277,1.775-2.4,3.649-3.533,5.516-2.613,4.28-10.782,6.287-10.782,6.287a8.705,8.705,0,0,1-2.2.78,25.1,25.1,0,0,1-6.992.207,9.278,9.278,0,0,0-3.5,1.194C543.109,827.376,544.452,831.788,544.452,831.788Z" transform="translate(-120.205 -174.442)" fill="#892438"/>
    <circle id="Ellipse_21" data-name="Ellipse 21" cx="0.647" cy="0.647" r="0.647" transform="translate(461.511 643.156)"/>
    <circle id="Ellipse_22" data-name="Ellipse 22" cx="0.647" cy="0.647" r="0.647" transform="translate(453.549 646.548)"/>
    <circle id="Ellipse_23" data-name="Ellipse 23" cx="0.647" cy="0.647" r="0.647" transform="translate(456.693 651.375)"/>
    <circle id="Ellipse_24" data-name="Ellipse 24" cx="0.647" cy="0.647" r="0.647" transform="translate(445.737 649.741)"/>
    <circle id="Ellipse_25" data-name="Ellipse 25" cx="0.647" cy="0.647" r="0.647" transform="translate(457.987 645.254)"/>
    <circle id="Ellipse_26" data-name="Ellipse 26" cx="0.647" cy="0.647" r="0.647" transform="translate(461.097 651.035)"/>
    <circle id="Ellipse_27" data-name="Ellipse 27" cx="0.647" cy="0.647" r="0.647" transform="translate(449.693 648.439)"/>
    <circle id="Ellipse_28" data-name="Ellipse 28" cx="0.647" cy="0.647" r="0.647" transform="translate(441.457 650.728)"/>
    <path id="Tracé_122" data-name="Tracé 122" d="M544.452,834.887s11.139,7.655,22.733,4.454a78.957,78.957,0,0,1,28.506-2.488c7.315.622,9.181-1.908,9.181-1.908a5.646,5.646,0,0,0,.937-2.7,2.226,2.226,0,0,1,.05-.572,19.379,19.379,0,0,0-.3-4.147c-1.526,1.136-4.678,2.488-11.072,2.729-11.056.348-25.645,3.177-25.645,3.177l-14.1-.581s-7.9-1.709-7.863-4.653C543.109,830.474,544.452,834.887,544.452,834.887Z" transform="translate(-120.205 -177.54)" opacity="0.1"/>
    <path id="Tracé_123" data-name="Tracé 123" d="M568.34,838.475a3.318,3.318,0,0,0,.7.058c2.488,0,8.493-1.31,12.076-2.148a16.871,16.871,0,0,1,3.085-.44c3.318-.174,11.437-.564,16.015-.531h.108a24.176,24.176,0,0,0,9.6-2.322,2.226,2.226,0,0,1,.05-.572,23.761,23.761,0,0,1-9.754,2.389c-4.578,0-12.739.365-16.04.539A17.97,17.97,0,0,0,581,835.9c-3.177.747-10.782,2.447-12.574,2.09Z" transform="translate(-124.32 -178.391)" fill="#892438"/>
    <path id="Tracé_124" data-name="Tracé 124" d="M575.186,691.1a8.729,8.729,0,0,1-.066,1.178l4.222,25.57c.755.722,1.485,1.41,2.173,2.082a55.583,55.583,0,0,1,5.9,6.22c2.488,3.865,11.3,1.875,11.139,1.5s-3.782-18.578-3.782-18.578l-2.861-7.357s-2.986,1.866-5.922-1.244c-1.85-1.966-5.988-5.806-8.8-8.377L575.2,690.29C575.2,690.589,575.195,690.879,575.186,691.1Z" transform="translate(-125.477 -154.125)" opacity="0.03"/>
    <path id="Tracé_125" data-name="Tracé 125" d="M565.672,641.05v.514c.058.547.116,1.128.182,1.725.614-.224,1.219-.464,1.816-.73l.829-.382a43.671,43.671,0,0,0,7.721-4.777l-7.232-3.11-2.14-.921a3.268,3.268,0,0,0-1.427,1.244A33.146,33.146,0,0,0,565.672,641.05Z" transform="translate(-123.809 -144.413)" opacity="0.05"/>
    <path id="Tracé_126" data-name="Tracé 126" d="M490.671,643.992c.2.3.39.6.6.9A50.725,50.725,0,0,0,506.6,659.543c2.679,1.659,5.341,3.525,6.138,4.769,1.742,2.737,30.919,21.564,30.919,21.564s13.577,12.026,21.78,19.963l1.045,1.012.506.5c.605.589,1.153,1.145,1.659,1.659.73.738,1.335,1.385,1.8,1.924.174.2.332.382.464.547a6.4,6.4,0,0,1,.431.581c2.488,3.865,11.3,1.866,11.139,1.493s-3.8-18.562-3.8-18.562l-2.87-7.357a4.47,4.47,0,0,1-3.765.249,5.8,5.8,0,0,1-2.148-1.5c-1.85-1.957-6-5.806-8.808-8.369-1.659-1.526-2.853-2.6-2.853-2.6l-9.356-10.591s-11.968-15.584-20.942-19.449c0,0,10.11-4.147,17.326-5.242a31.518,31.518,0,0,0,8.02-1.941l.829-.39a44.041,44.041,0,0,0,7.721-4.777l-7.207-3.1L516.614,613.57c-.232,0-2.438.149-4.056.257l-1.717.116s-14.174,14.713-14.929,16.214S486.806,637.979,490.671,643.992Z" transform="translate(-110.895 -141.035)" fill="#ecb4b6"/>
    <path id="Tracé_127" data-name="Tracé 127" d="M537.364,642s-16.331,2-19.573,5.366c0,0,14.34,1,14.929,2.87,0,0-8.194-5.549-10.475-4.147Z" transform="translate(-115.696 -145.886)" opacity="0.03"/>
    <path id="Tracé_128" data-name="Tracé 128" d="M582.29,725.95l.506.5c.605.589,1.153,1.145,1.659,1.659.73.738,1.335,1.385,1.8,1.924l2.115-2.737a8.746,8.746,0,0,0-2.405-1.46,4.147,4.147,0,0,0-3.658.116Z" transform="translate(-126.7 -160.126)" opacity="0.05"/>
    <path id="Tracé_129" data-name="Tracé 129" d="M583.016,732.166a11.468,11.468,0,0,0,1.708.705l1.659-2.19,2.148-2.787a8.609,8.609,0,0,0-2.405-1.451,4.147,4.147,0,0,0-3.658.108,5.316,5.316,0,0,0-1.949,2.148S579.889,730.565,583.016,732.166Z" transform="translate(-126.389 -160.229)" fill="#892438"/>
    <path id="Tracé_130" data-name="Tracé 130" d="M583.13,727.859l.34.34a11.482,11.482,0,0,0,1.709.7l1.659-2.19a6.39,6.39,0,0,1,.431.581c2.488,3.865,11.3,1.866,11.139,1.493s-3.774-18.562-3.774-18.562l-2.87-7.357a4.471,4.471,0,0,1-3.765.249,1.833,1.833,0,0,0,0,2.613,17.549,17.549,0,0,1,2.828,8.294c1.12,3.085-2.281,6.867-4.238,8.46a6.1,6.1,0,0,1-1.053.7,2.438,2.438,0,0,0-.954,1.062A20.076,20.076,0,0,0,583.13,727.859Z" transform="translate(-126.844 -156.271)" opacity="0.05"/>
    <path id="Tracé_131" data-name="Tracé 131" d="M584.33,727.22l3.782,3.8A28.291,28.291,0,0,1,599.558,745.3a30.58,30.58,0,0,0,1.352,3.318,14.845,14.845,0,0,1,.987,4.661c.091.97.133,1.924.166,2.754a4.478,4.478,0,0,0,1.128,2.878l.05.05a4.47,4.47,0,0,0,6.113.522c.133-.108.207-.182.207-.182,6.229-5.109,3.177-28.431,1.12-31.674s-2.43-19.905-3.185-25.18c-.348-2.488-1.659-3.251-3.367-3.318s-3.956.672-5.905.887h-.315c-3.873.307-11.3,1.451-8.7,5.043a17.418,17.418,0,0,1,2.828,8.294c1.377,3.8-4.147,8.667-5.292,9.123S584.33,727.22,584.33,727.22Z" transform="translate(-127.048 -155.632)" fill="#892438"/>
    <circle id="Ellipse_29" data-name="Ellipse 29" cx="1.103" cy="1.103" r="1.103" transform="translate(461.644 568.138)"/>
    <circle id="Ellipse_30" data-name="Ellipse 30" cx="1.103" cy="1.103" r="1.103" transform="translate(463.328 572.268)"/>
    <circle id="Ellipse_31" data-name="Ellipse 31" cx="1.103" cy="1.103" r="1.103" transform="translate(468.503 578.92)"/>
    <circle id="Ellipse_32" data-name="Ellipse 32" cx="1.103" cy="1.103" r="1.103" transform="translate(465.94 575.503)"/>
    <circle id="Ellipse_33" data-name="Ellipse 33" cx="1.103" cy="1.103" r="1.103" transform="translate(470.651 582.86)"/>
    <path id="Tracé_132" data-name="Tracé 132" d="M606.058,742.969s.921,10.823,0,15.883a4.487,4.487,0,0,0,6.162.572c.133-.108.207-.182.207-.182,6.229-5.109,3.177-28.431,1.12-31.674s-2.43-19.905-3.185-25.18c-.348-2.488-1.659-3.251-3.367-3.318s-3.956.672-5.905.887c0,5.283.3,17.417,1.659,21.448C604.565,726.613,606.058,742.969,606.058,742.969Z" transform="translate(-129.908 -155.622)" opacity="0.1"/>
    <path id="Tracé_133" data-name="Tracé 133" d="M610.016,720.953c1.161,4.089,2.9,15.3,2.745,21.29-.124,4.4.382,12.963.664,17.2.133-.108.207-.182.207-.182,6.229-5.109,3.177-28.431,1.12-31.674s-2.43-19.905-3.185-25.18c-.348-2.488-1.659-3.251-3.367-3.318C608.432,704.481,609.1,717.718,610.016,720.953Z" transform="translate(-131.121 -155.626)" opacity="0.1"/>
    <path id="Tracé_134" data-name="Tracé 134" d="M605.169,699.44c.232,4.255.929,15.6,2.073,18.844,1.427,4.064,2.936,23.5,3,24.334h-.5c0-.207-1.576-20.212-2.977-24.21-1.169-3.318-1.866-14.581-2.09-18.91Z" transform="translate(-130.52 -155.686)" fill="#892438"/>
    <path id="Tracé_135" data-name="Tracé 135" d="M591.674,446.86a95.742,95.742,0,0,0-12.631,3.127c-4.57,1.692-5.242,2.613-5.242,2.613l-4.736.746v-5.068s-16.969,1.252-18.678.564a.406.406,0,0,1-.108-.066c-.829-.829.5,6.569-.747,8.145S542.9,463.954,552.942,468s32.827,4.462,32.827,4.462l6.486-12.8Z" transform="translate(-120.675 -112.592)" fill="#892438"/>
    <path id="Tracé_136" data-name="Tracé 136" d="M627.94,467.061,610,463.237a43.46,43.46,0,0,0,5.192-13.735,18.878,18.878,0,0,0-1.2-11.537C608.831,427.5,627.94,422,627.94,422s6.992,10.782,13.27,16.248c2.107,1.816,4.147,3.036,5.806,3.036C653.709,441.292,627.94,467.061,627.94,467.061Z" transform="translate(-131.428 -108.351)" fill="#ecb4b6"/>
    <path id="Tracé_137" data-name="Tracé 137" d="M515.19,615.444s7.8,18.454,14.929,18.786c4.3.2,17.575,2.024,27.469,3.442l.887.124a44.051,44.051,0,0,0,7.721-4.777l-7.207-3.1L520.971,613.57c-.232,0-2.438.149-4.056.257Z" transform="translate(-115.252 -141.035)" opacity="0.1"/>
    <path id="Tracé_138" data-name="Tracé 138" d="M579.624,633.555c6.784.979-1.833,7.813-1.833,7.813s3.318,2.488,7.149,11.611,5.656,8.476,5.656,8.476l10.624.581c.323-4.669.605-8.062.605-8.062l-7.232-17.616-8.51-11.139s-14.182,3.94-19.018,6.635l-.141.075a3.268,3.268,0,0,0-1.427,1.244C565.284,633.87,579.317,630.254,579.624,633.555Z" transform="translate(-123.835 -143.023)" opacity="0.1"/>
    <path id="Tracé_139" data-name="Tracé 139" d="M627.94,470.4,610,466.581a43.46,43.46,0,0,0,5.192-13.735l5.615,5.416a13.867,13.867,0,0,0,7.688-2.248,11.758,11.758,0,0,0,2.621-2.405c3.989-4.976,8.8-11.47,8.8-11.47s.564-.257,1.335-.539c2.107,1.816,4.147,3.036,5.806,3.036C653.709,444.636,627.94,470.4,627.94,470.4Z" transform="translate(-131.428 -111.695)" opacity="0.1"/>
    <path id="Tracé_140" data-name="Tracé 140" d="M515.19,584.57s7.8,18.454,14.929,18.794,39.064,5.15,39.064,5.15,3.318,2.488,7.149,11.611,5.656,8.485,5.656,8.485l12.3.664,2.331-13.959s1.327-5.159,9.472-19.789,8.974-30.579,8.974-30.579,2.488-4.827,1.833-6.983-2.828-19.292-2.994-21.116,3.658-9.953,3.658-9.953,7.315-9.953,7.149-11.47,2.828-5.806,2.828-5.806l6.635-10.94a4.976,4.976,0,0,0,.688,5.117c1.991,2.662.323,7.979.323,7.979l.406,6.71.091,1.609s-1,1-3.716,3.492-1.435,2.82-1.435,2.82c8.485-1.161,15.128,12.64,15.128,12.64s7.149-4.976,10.782-9.314a5.749,5.749,0,0,0,.921-1.6c2.206-5.532-.05-17.351-.05-17.351,2.878-5.15-.7-9.812-.7-9.812,2.331-6.312-1.825-12.963-1.825-12.963l-.332-14.464c1.825-3.815-4.5-13.27-4.5-13.27s-1.493-7.149-2.828-7.813-2.82-3.658-2.82-3.658c.166-3.318-8.651-3.658-9.472-3.823a16.113,16.113,0,0,1-3.011-1.758,26.139,26.139,0,0,0-2.646-1.568c-1.5-.664-5.491,1.169-5.491,1.169s-4.81,6.477-8.808,11.47a11.554,11.554,0,0,1-2.613,2.405,13.867,13.867,0,0,1-7.663,2.223l-5.723-5.515L582,454.431l-3.931,19.449c-8.651,7.141-5.325,15.294-5.491,20.61s-1,11.611-1,11.611-3.658,5.988-3.16,9.123-2.662,8.294-2.662,8.294-4.653,5.151-4.147,8.476a20.786,20.786,0,0,1-.829,7.647s-3.152,5.806-1.825,9.123.664,5.159.664,5.159-6.818,1-7.315,4.653-6.635,4.976-6.635,4.976-10.964,3.989-13.635,5.806S515.19,584.57,515.19,584.57Z" transform="translate(-115.252 -111.679)" fill="#892438"/>
    <path id="Tracé_141" data-name="Tracé 141" d="M680.653,516s-12.441,1.5-13.967,3.318,12.441,2,12.441,2Z" transform="translate(-141.08 -124.388)" opacity="0.1"/>
    <path id="Tracé_142" data-name="Tracé 142" d="M661.3,527.439s9.123-3.243,9.389-2.248-9.389,6.486-9.389,6.486Z" transform="translate(-140.181 -125.924)" opacity="0.1"/>
    <path id="Tracé_143" data-name="Tracé 143" d="M653.672,506.18c-1.584,2.5-14.672,18.587-14.672,18.587l14.1-20.577Z" transform="translate(-136.376 -122.373)" opacity="0.1"/>
    <path id="Tracé_144" data-name="Tracé 144" d="M652,501.109c-1,1.327-11.553,18.62-11.553,18.62l10.641-19.449Z" transform="translate(-136.623 -121.706)" opacity="0.1"/>
    <path id="Tracé_145" data-name="Tracé 145" d="M679.175,475.651s-4.072-5.739-8.062-2.082S679.175,475.651,679.175,475.651Z" transform="translate(-141.717 -116.941)" opacity="0.1"/>
    <path id="Tracé_146" data-name="Tracé 146" d="M643.2,470.138s-10.392,0-15.46,2.331S632.23,465.485,643.2,470.138Z" transform="translate(-134.217 -116.338)" opacity="0.1"/>
    <path id="Tracé_147" data-name="Tracé 147" d="M632.29,457.875h1.534s3.575-1.327,4.487-4.081,8.1-.24,8.1-.24,1.037.78.124-.5,3.16-5.316,4.976-7.979a2.235,2.235,0,0,0,.315-.672,24.911,24.911,0,0,0-2.646-1.576c-1.5-.663-5.49,1.169-5.49,1.169s-4.81,6.486-8.808,11.47A11.551,11.551,0,0,1,632.29,457.875Z" transform="translate(-135.231 -111.88)" opacity="0.1"/>
    <path id="Tracé_148" data-name="Tracé 148" d="M632.29,456.665h1.534s3.575-1.327,4.487-4.081,8.1-.241,8.1-.241,1.037.78.124-.5,3.16-5.316,4.976-7.979a2.272,2.272,0,0,0,.315-.68,26.124,26.124,0,0,0-2.646-1.568c-1.5-.664-5.491,1.169-5.491,1.169s-4.81,6.478-8.808,11.47A11.552,11.552,0,0,1,632.29,456.665Z" transform="translate(-135.231 -111.673)" fill="#892438"/>
    <circle id="Ellipse_34" data-name="Ellipse 34" cx="1.103" cy="1.103" r="1.103" transform="translate(483.689 354.306)" fill="#e7c7ca"/>
    <circle id="Ellipse_35" data-name="Ellipse 35" cx="1.103" cy="1.103" r="1.103" transform="translate(464.729 380.1)" fill="#e7c7ca"/>
    <circle id="Ellipse_36" data-name="Ellipse 36" cx="1.103" cy="1.103" r="1.103" transform="translate(471.572 363.819)" fill="#e7c7ca"/>
    <circle id="Ellipse_37" data-name="Ellipse 37" cx="1.103" cy="1.103" r="1.103" transform="translate(461.669 396.87)" fill="#e7c7ca"/>
    <circle id="Ellipse_38" data-name="Ellipse 38" cx="1.103" cy="1.103" r="1.103" transform="translate(447.619 425.799)" fill="#e7c7ca"/>
    <circle id="Ellipse_39" data-name="Ellipse 39" cx="1.103" cy="1.103" r="1.103" transform="translate(446.516 440.62)" fill="#e7c7ca"/>
    <path id="Tracé_149" data-name="Tracé 149" d="M553.27,439.158l2.239,7.232,7.066-.5,6.312-6.735s.415-1.211,1.062-3.011c1.592-4.454,4.6-12.54,6.262-15.028,2.322-3.483,3.823-17.948,3.823-17.948s-2.555-5.806-9.845,5.806c-5.482,8.758-12.308,21.431-15.335,27.154C553.875,438.03,553.27,439.158,553.27,439.158Z" transform="translate(-121.749 -104.891)" fill="#ecb4b6"/>
    <path id="Tracé_150" data-name="Tracé 150" d="M591,563.994c0,1.775,7.465,2.6,10.989,2.9l1.808.124c-.829,1.874,3.575,16.173,3.575,16.173a8.311,8.311,0,0,0,1.111-.141c5.806-1.169,17.26-9.173,17.26-9.173s.249-2.745,12.092-7.556c8.717-3.558,15.244-10.21,18.288-13.511a20.365,20.365,0,0,1,1.866-1.957L647.473,540s-1.7,1.576-3.94,3.691c-4.1,3.873-10.011,9.538-10.608,10.633-.912,1.659-17.367,9.7-17.367,9.7C611.9,560.867,604,560.2,604,560.2S591,561.664,591,563.994Z" transform="translate(-128.186 -128.483)" fill="#ecb4b6"/>
    <path id="Tracé_151" data-name="Tracé 151" d="M608.752,523.73c-.5,1-23.024,15.957-26.847,16.206s3.575-7.149,3.824-7.232S608.752,523.73,608.752,523.73Z" transform="translate(-126.448 -125.707)" opacity="0.1"/>
    <path id="Tracé_152" data-name="Tracé 152" d="M467.829,810.1,467,809.91Z" transform="translate(-107.03 -174.534)" opacity="0.1"/>
    <path id="Tracé_153" data-name="Tracé 153" d="M547.24,828.06a9.121,9.121,0,0,1,3.5-1.194,24.878,24.878,0,0,0,6.992-.216,16.671,16.671,0,0,0-.514,6.146l-2.115-.083S547.207,831,547.24,828.06Z" transform="translate(-120.72 -177.39)" fill="#892438" opacity="0.3"/>
    <path id="Tracé_154" data-name="Tracé 154" d="M468.548,810.251l-.448-.091Z" transform="translate(-107.218 -174.576)" opacity="0.1"/>
    <path id="Tracé_155" data-name="Tracé 155" d="M454.33,804.55Z" transform="translate(-104.869 -173.619)" opacity="0.1"/>
    <path id="Tracé_156" data-name="Tracé 156" d="M454.35,804.56Z" transform="translate(-104.872 -173.621)" opacity="0.1"/>
    <path id="Tracé_157" data-name="Tracé 157" d="M468.08,810.16h0Z" transform="translate(-107.197 -174.576)" opacity="0.1"/>
    <path id="Tracé_158" data-name="Tracé 158" d="M605.51,764.332c.091.97.133,1.924.166,2.754a4.479,4.479,0,0,0,1.128,2.878l.05.05a40.02,40.02,0,0,0,.365-5.914C607.044,764.357,606.3,764.382,605.51,764.332Z" transform="translate(-130.662 -166.718)" fill="#7b2032"/>
    <path id="Tracé_159" data-name="Tracé 159" d="M654.34,543.658c5.416-.34,10.036,5.283,12.549,9.123a20.371,20.371,0,0,1,1.866-1.957L658.28,540S656.546,541.543,654.34,543.658Z" transform="translate(-138.993 -128.483)" opacity="0.1"/>
    <path id="Tracé_160" data-name="Tracé 160" d="M654.215,540.9c8.484-1.161,15.128,12.64,15.128,12.64s7.149-4.976,10.782-9.314a5.806,5.806,0,0,0,.921-1.609c-1.974-4.744-7.423-12.648-21.8-9.638l.091,1.609s-1,1-3.716,3.483S654.215,540.9,654.215,540.9Z" transform="translate(-138.918 -127.172)" opacity="0.1"/>
    <path id="Tracé_161" data-name="Tracé 161" d="M654.215,542.1c8.484-1.161,15.128,12.64,15.128,12.64s7.149-4.976,10.782-9.314a5.747,5.747,0,0,0,.921-1.6c-1.974-4.744-7.423-12.656-21.8-9.646l.091,1.609s-1,1-3.716,3.492S654.215,542.1,654.215,542.1Z" transform="translate(-138.918 -127.377)" fill="#ff718d"/>
    <path id="Tracé_162" data-name="Tracé 162" d="M654.215,542.1c8.484-1.161,15.128,12.64,15.128,12.64s7.149-4.976,10.782-9.314a5.747,5.747,0,0,0,.921-1.6c-1.974-4.744-7.423-12.656-21.8-9.646l.091,1.609s-1,1-3.716,3.492S654.215,542.1,654.215,542.1Z" transform="translate(-138.918 -127.377)" fill="#892438"/>
    <path id="Tracé_163" data-name="Tracé 163" d="M553.27,446.241l2.239,7.232,7.066-.5,6.312-6.735s.415-1.211,1.062-3.011c-.9.506-7,3.89-10.7,4.072-2.944.149-4.031-2.6-4.4-4.072C553.875,445.113,553.27,446.241,553.27,446.241Z" transform="translate(-121.749 -111.973)" opacity="0.1"/>
    <path id="Tracé_164" data-name="Tracé 164" d="M550.513,449.108l.464-.539c1.659-1.924,3.152-3.409,3.152-3.409a7.746,7.746,0,0,0,1.435,3.575,3.633,3.633,0,0,0,3.135,1.393,19.9,19.9,0,0,0,6.2-1.833c2.488-1.111,4.6-2.306,4.6-2.306v2l.041,1.991v4.57s1.742,12.134-14.382,5.656c0,0,1-4.454-5.126-3.608Z" transform="translate(-121.198 -112.302)" opacity="0.1"/>
    <path id="Tracé_165" data-name="Tracé 165" d="M568.7,444.189l.083,3.989v4.57s1.742,12.134-14.382,5.656c0,0,1.169-5.159-6.635-3.318s5.582-11.728,5.582-11.728.564,5.167,4.57,4.976S568.7,444.189,568.7,444.189Z" transform="translate(-120.393 -111.995)" fill="#ff718d"/>
    <path id="Tracé_166" data-name="Tracé 166" d="M568.7,444.189l.083,3.989v4.57s1.742,12.134-14.382,5.656c0,0,1.169-5.159-6.635-3.318s5.582-11.728,5.582-11.728.564,5.167,4.57,4.976S568.7,444.189,568.7,444.189Z" transform="translate(-120.393 -111.995)" fill="#892438"/>
    <path id="Tracé_167" data-name="Tracé 167" d="M608.043,593.237c-.166-.249-.829-20.113-3.409-20.61s-8.974,2.156-8.974,2.156l1.161,15.874Z" transform="translate(-128.982 -134.039)" opacity="0.1"/>
    <path id="Tracé_168" data-name="Tracé 168" d="M606.008,572.479c-.829,1.874,3.575,16.173,3.575,16.173a8.3,8.3,0,0,0,1.111-.141c-.406-5.914-1.269-16.132-3.11-16.48a8.821,8.821,0,0,0-3.384.324Z" transform="translate(-130.439 -133.941)" opacity="0.1"/>
    <path id="Tracé_169" data-name="Tracé 169" d="M609.243,592.635c-.166-.249-.829-20.113-3.409-20.618s-8.974,2.165-8.974,2.165l1.161,15.874Z" transform="translate(-129.186 -133.935)" fill="#ff718d"/>
    <path id="Tracé_170" data-name="Tracé 170" d="M609.243,592.635c-.166-.249-.829-20.113-3.409-20.618s-8.974,2.165-8.974,2.165l1.161,15.874Z" transform="translate(-129.186 -133.935)" fill="#892438"/>
    <path id="Tracé_171" data-name="Tracé 171" d="M582.251,451.449a43.562,43.562,0,0,0,4.354-10.2,48.9,48.9,0,0,0,1.493-5.167,20.577,20.577,0,0,0,14.1,8.758,41.19,41.19,0,0,1,1.659,3.964,11.113,11.113,0,0,1-1.7,10.309c-2.322,2.8-6.569,4-9.82,2.364a20.243,20.243,0,0,0-2.928-1.559c-2.206-.7-4.512.456-6.793.829a10.625,10.625,0,0,1-8.866-2.571A14.8,14.8,0,0,0,582.251,451.449Z" transform="translate(-125.243 -110.753)" fill="#33292e"/>
    <circle id="Ellipse_40" data-name="Ellipse 40" cx="20.61" cy="20.61" r="20.61" transform="translate(459.446 294.391)" opacity="0.1"/>
    <circle id="Ellipse_41" data-name="Ellipse 41" cx="20.61" cy="20.61" r="20.61" transform="translate(459.446 293.047)" fill="#ecb4b6"/>
    <path id="Tracé_172" data-name="Tracé 172" d="M590.975,407.207c-2.422-1.659-5.988-.34-8.543-1.808a6.378,6.378,0,0,1-2.571-3.376,12.2,12.2,0,0,1,7.257-15.269c1.559-.523,3.218-.7,4.794-1.186,4.288-1.31,7.6-4.636,11.313-7.149a32.688,32.688,0,0,1,12.748-5.126c3.384-.581,7.133-.539,9.895,1.5,3.11,2.306,4.105,6.453,4.744,10.276s1.286,7.954,4.031,10.682c2.2,2.173,5.333,3.027,8.136,4.338s5.615,3.558,5.806,6.635c.141,2.414-1.377,4.6-1.85,6.975-.531,2.679.29,5.424,1.219,7.987a95.7,95.7,0,0,0,10.268,20.386A55.566,55.566,0,0,1,641.9,448.1a14.17,14.17,0,0,1-7.116.042c-2.886-.921-5.043-3.409-6.436-6.1a20.3,20.3,0,0,1-2.173-7.7c-.406-5.35,1.269-11.089-1.1-15.9a5.491,5.491,0,0,0-2.082-2.4,16.3,16.3,0,0,0-3.467-1.053,14.049,14.049,0,0,1-5.117-3.517l-5.491-5.109a15.459,15.459,0,0,0-4.271-3.143c-2.919-1.236-6.361-.531-9.123,1.02-2.43,1.36-5.233,3.4-7.688,2.09" transform="translate(-126.171 -99.986)" fill="#33292e"/>
    <g id="Groupe_6" data-name="Groupe 6" transform="translate(453.02 294.01)" opacity="0.1">
      <path id="Tracé_173" data-name="Tracé 173" d="M591.1,413.6l-1.46-.415a3.491,3.491,0,0,0,1.46.415Z" transform="translate(-580.974 -400.857)"/>
      <path id="Tracé_174" data-name="Tracé 174" d="M591.4,413.685l1.659.464a4.208,4.208,0,0,0-.937-.489A5.241,5.241,0,0,1,591.4,413.685Z" transform="translate(-581.275 -400.937)"/>
      <path id="Tracé_175" data-name="Tracé 175" d="M642.547,449.734a14.361,14.361,0,0,1-7.116.041c-2.886-.929-5.043-3.409-6.436-6.113a20.306,20.306,0,0,1-2.173-7.7c-.406-5.349,1.269-11.081-1.095-15.9a5.565,5.565,0,0,0-2.032-2.4,15.684,15.684,0,0,0-3.467-1.045,14.254,14.254,0,0,1-5.117-3.517l-5.491-5.1a15.461,15.461,0,0,0-4.271-3.143c-2.919-1.236-6.361-.531-9.123,1.02-1.733.97-3.649,2.281-5.507,2.488a4.375,4.375,0,0,1,.937.489L590,408.4a3.49,3.49,0,0,1-1.46-.415l1.46.415a3.5,3.5,0,0,0,.722,0c-2.339-.9-5.358,0-7.605-1.31a6.37,6.37,0,0,1-2.588-3.392,10.882,10.882,0,0,1-.556-5.374,11.5,11.5,0,0,0-.108,8.028,6.378,6.378,0,0,0,2.588,3.384c2.239,1.294,5.267.415,7.605,1.319,1.849-.2,3.774-1.51,5.507-2.488,2.77-1.551,6.212-2.256,9.123-1.02a15.459,15.459,0,0,1,4.271,3.143l5.491,5.109a14.049,14.049,0,0,0,5.117,3.517,16.294,16.294,0,0,1,3.467,1.053,5.49,5.49,0,0,1,2.024,2.4c2.372,4.81.7,10.55,1.1,15.9a20.305,20.305,0,0,0,2.173,7.7c1.393,2.7,3.55,5.184,6.436,6.1a14.138,14.138,0,0,0,7.108-.042,55.567,55.567,0,0,0,16.331-6.021c-.382-.572-.755-1.153-1.12-1.733a55.79,55.79,0,0,1-14.539,5.068Z" transform="translate(-579.192 -398.32)"/>
      <path id="Tracé_176" data-name="Tracé 176" d="M662.549,414.62a24.382,24.382,0,0,0-1.161,3.5c-.05.257-.083.523-.108.78a16.521,16.521,0,0,0,1.269-4.28Z" transform="translate(-593.197 -401.101)"/>
    </g>
    <path id="Tracé_177" data-name="Tracé 177" d="M602.316,460.7c-2.322,2.8-6.569,3.989-9.82,2.355a20.682,20.682,0,0,0-2.928-1.559c-2.206-.7-4.512.456-6.793.829a10.666,10.666,0,0,1-7.639-1.659,12.507,12.507,0,0,1-1.227.406,10.641,10.641,0,0,0,8.866,2.563c2.281-.406,4.586-1.559,6.793-.829a21.618,21.618,0,0,1,2.928,1.568c3.251,1.659,7.464.431,9.82-2.364a10.558,10.558,0,0,0,2.248-7.357A10.259,10.259,0,0,1,602.316,460.7Z" transform="translate(-125.271 -113.921)" opacity="0.1"/>
  </g>
</svg>
