<svg xmlns="http://www.w3.org/2000/svg" width="767.719" height="641" viewBox="0 0 767.719 641">
  <g id="Groupe_48" data-name="Groupe 48" transform="translate(0 0.042)">
    <path id="Tracé_235" data-name="Tracé 235" d="M830.512,735.227H364.5l.21-49.409c.532-125.021,100.321-228.038,225.325-230.164q2.026-.034,4.058-.034h0a235.734,235.734,0,0,1,82.4,14.8c88.45,32.94,147.818,116.631,151.767,210.934Z" transform="translate(-206.921 -129.742)" fill="#6c63ff"/>
    <rect id="Rectangle_90" data-name="Rectangle 90" width="767.719" height="1.922" transform="translate(0 605.485)" fill="#2f2e41"/>
    <path id="Tracé_236" data-name="Tracé 236" d="M398.287,398.72l20.533,14.934,20.534,175.472h48.534l-16.8-199.741-67.2-26.134Z" transform="translate(-15.593 -14.223)" fill="#2f2e41"/>
    <path id="Tracé_237" data-name="Tracé 237" d="M509.393,456.671s-5.6,63.469,16.8,65.335,108.27-18.667,108.27-18.667l41.068,145.6,61.6-31.734S699.8,452.937,677.4,443.6s-97.07-28-97.07-28l-54.135,9.334Z" transform="translate(-212.569 -128.175)" fill="#2f2e41"/>
    <path id="Tracé_238" data-name="Tracé 238" d="M649.042,710.906s-11.2,42.935-3.734,46.668a135.046,135.046,0,0,1,13.067,7.467v-7.467s9.334,9.334,9.334,16.8,50.4,9.334,50.4,0-1.867-20.534-11.2-26.134-20.534-37.334-20.534-37.334Z" transform="translate(-217.814 -139.736)" fill="#2f2e41"/>
    <path id="Tracé_239" data-name="Tracé 239" d="M505.14,514.105l3.733,35.468,13.068,22.4,31.734-35.468-24.267-39.2Z" transform="translate(-19.776 -19.471)" fill="#2f2e41"/>
    <path id="Tracé_240" data-name="Tracé 240" d="M735.508,667.3s6.874-23.5,13.7-21.085S782.176,672.9,782.176,672.9l18.667,11.2s37.335,3.733,26.134,14.934-52.268,26.134-70.936,18.667-22.4-9.334-22.4-9.334l-5.6,3.733-22.4-5.6,3.733-39.2S714.974,684.1,735.508,667.3Z" transform="translate(-220.276 -137.197)" fill="#2f2e41"/>
    <circle id="Ellipse_60" data-name="Ellipse 60" cx="42.935" cy="42.935" r="42.935" transform="translate(317.358 9.285)" fill="#9f616a"/>
    <path id="Tracé_241" data-name="Tracé 241" d="M546.837,196.542s3.733,39.2-7.467,39.2,1.867,48.535,31.734,48.535,41.068-57.869,41.068-57.869-20.534-7.467-16.8-31.734S546.837,196.542,546.837,196.542Z" transform="translate(-213.611 -119.122)" fill="#9f616a"/>
    <path id="Tracé_242" data-name="Tracé 242" d="M541.617,234.174,525.925,240.9l-42.59,18.019a8.647,8.647,0,0,0-5.224,8.931L494.19,410.77s-16.8,35.468,9.334,37.334l3.733,13.067L537.125,425.7l112-3.733L651,240.9l-51.248-20.251S592.778,259.185,541.617,234.174Z" transform="translate(-211.366 -120.543)" fill="#3f3d56"/>
    <path id="Tracé_243" data-name="Tracé 243" d="M488.649,265.919l-6.9-1.971a5.687,5.687,0,0,0-7.179,4.573L456.266,383.35a39.877,39.877,0,0,0,3.9,24.9c5.656,10.709,17.4,20.422,41.554,8.872l16.8-121.337Z" transform="translate(-210.492 -122.229)" fill="#3f3d56"/>
    <path id="Tracé_244" data-name="Tracé 244" d="M635.7,238.809l22.4,3.733,61.6,85.869,5.6,14.934,35.468-11.2s-1.867,16.8,16.8,14.934c0,0-22.4,61.6-69.069,42.935s-61.6-74.669-61.6-74.669Z" transform="translate(-217.538 -121.254)" fill="#3f3d56"/>
    <path id="Tracé_245" data-name="Tracé 245" d="M458.824,159.834l-84-33.6-3.733,11.2,39.2,33.6Z" transform="translate(-14.528 -4.944)" fill="#ccc"/>
    <path id="Tracé_246" data-name="Tracé 246" d="M547.5,171.419c1.586-.423,1.819-2.529,1.872-4.169.285-8.785,5.574-17.8,13.983-20.356a23.507,23.507,0,0,1,9.909-.545,37.535,37.535,0,0,1,13.42,4.477c2.19,1.231,4.338,2.714,6.822,3.09,1.641.248,8.744,2.314,10.378,2.6,3.592.639,6.93,3.853,10.376,2.657,3.3-1.144,4.027-5.413,4.107-8.9.182-7.949-5.853-18.952-11.168-24.865-4.034-4.488-10.107-6.559-16.044-7.636A106.816,106.816,0,0,0,570.17,116.5c-9.5.169-19.266.9-27.834,5.014S526.572,133.8,526.161,143.3c-.085,1.978.119,3.964-.048,5.936-.406,4.812-2.961,9.158-4.16,13.836A25.319,25.319,0,0,0,525.49,183.3c3.18,4.679,15.9,8.927,15.711,14.582,2.3-2.381-3.121-4.778-.823-7.159a5.662,5.662,0,0,0,1.684-6.917l-2.44-9.519c-.447-1.743-.886-3.63-.211-5.3C542.026,162.529,544.854,172.125,547.5,171.419Z" transform="translate(-213.055 -116.462)" fill="#2f2e41"/>
    <path id="Tracé_247" data-name="Tracé 247" d="M369.643,136.6,334.175,274.734l138.138,48.535,80.269-67.2,50.4-151.2L520.847,164.6Z" transform="translate(-13.083 -4.107)" fill="#f2f2f2"/>
    <rect id="Rectangle_91" data-name="Rectangle 91" width="1.866" height="139.005" transform="matrix(0.255, -0.967, 0.967, 0.255, 362.852, 149.258)" fill="#e6e6e6"/>
    <rect id="Rectangle_92" data-name="Rectangle 92" width="1.866" height="139.005" transform="matrix(0.255, -0.967, 0.967, 0.255, 359.119, 158.592)" fill="#e6e6e6"/>
    <rect id="Rectangle_93" data-name="Rectangle 93" width="1.866" height="139.005" transform="matrix(0.255, -0.967, 0.967, 0.255, 357.252, 167.925)" fill="#e6e6e6"/>
    <rect id="Rectangle_94" data-name="Rectangle 94" width="1.866" height="139.005" transform="matrix(0.255, -0.967, 0.967, 0.255, 355.385, 177.259)" fill="#e6e6e6"/>
    <rect id="Rectangle_95" data-name="Rectangle 95" width="1.866" height="139.005" transform="matrix(0.255, -0.967, 0.967, 0.255, 353.519, 186.592)" fill="#e6e6e6"/>
    <rect id="Rectangle_96" data-name="Rectangle 96" width="1.866" height="139.005" transform="matrix(0.255, -0.967, 0.967, 0.255, 351.652, 195.926)" fill="#e6e6e6"/>
    <rect id="Rectangle_97" data-name="Rectangle 97" width="1.866" height="139.005" transform="matrix(0.255, -0.967, 0.967, 0.255, 349.785, 205.259)" fill="#e6e6e6"/>
    <rect id="Rectangle_98" data-name="Rectangle 98" width="1.866" height="139.005" transform="matrix(0.255, -0.967, 0.967, 0.255, 347.918, 214.593)" fill="#e6e6e6"/>
    <rect id="Rectangle_99" data-name="Rectangle 99" width="1.866" height="139.005" transform="matrix(0.255, -0.967, 0.967, 0.255, 346.052, 223.927)" fill="#e6e6e6"/>
    <path id="Tracé_248" data-name="Tracé 248" d="M512.35,359.531s41.984-25.077,60.652-8.276-54.135,41.068-54.135,41.068Z" transform="translate(-212.709 -125.429)" fill="#9f616a"/>
    <path id="Tracé_249" data-name="Tracé 249" d="M464.625,372.025l54.135-20.534s-9.334,35.468,9.334,37.334l-26.134,31.734S449.691,420.559,464.625,372.025Z" transform="translate(-210.735 -125.665)" fill="#3f3d56"/>
    <path id="Tracé_250" data-name="Tracé 250" d="M411.8,255.6l71.834,24.211-17,37.056L394.8,292.659Z" transform="translate(-15.456 -10.009)" fill="#e6e6e6"/>
    <path id="Tracé_251" data-name="Tracé 251" d="M544.282,172.158l54.135-41.069-14.933,50.4-56,41.068Z" transform="translate(-20.651 -5.134)" fill="#ccc"/>
    <rect id="Rectangle_100" data-name="Rectangle 100" width="67.95" height="1.867" transform="translate(496.936 235.345) rotate(-37.183)" fill="#e6e6e6"/>
    <rect id="Rectangle_101" data-name="Rectangle 101" width="67.95" height="1.867" transform="translate(493.202 255.879) rotate(-37.183)" fill="#e6e6e6"/>
    <path id="Tracé_252" data-name="Tracé 252" d="M776.987,351.76s46.668-28,16.8-39.2-29.868,31.734-29.868,31.734S762.054,353.627,776.987,351.76Z" transform="translate(-222.555 -124.068)" fill="#9f616a"/>
    <path id="Tracé_253" data-name="Tracé 253" d="M292.329,171.888l-1.867,72.8,28.934-8.258-23.334.79Z" transform="translate(-11.372 -6.731)" opacity="0.1"/>
    <path id="Tracé_254" data-name="Tracé 254" d="M280.837,710.595c5.835,21.571,25.823,34.931,25.823,34.931s10.527-21.614,4.691-43.185-25.823-34.931-25.823-34.931S275,689.024,280.837,710.595Z" transform="translate(-203.576 -138.033)" fill="#8985a8"/>
    <path id="Tracé_255" data-name="Tracé 255" d="M288.2,706.841c16.012,15.587,17.968,39.549,17.968,39.549s-24.005-1.311-40.018-16.9-17.968-39.549-17.968-39.549S272.19,691.254,288.2,706.841Z" transform="translate(-202.367 -138.916)" fill="#3f3d56"/>
    <rect id="Rectangle_102" data-name="Rectangle 102" width="28.825" height="28.825" transform="translate(601.492 364.312)" fill="#f2f2f2"/>
    <rect id="Rectangle_103" data-name="Rectangle 103" width="28.825" height="28.825" transform="translate(486.19 37.623)" fill="#f2f2f2"/>
    <circle id="Ellipse_61" data-name="Ellipse 61" cx="14.413" cy="14.413" r="14.413" transform="translate(138.362 300.896)" fill="#f2f2f2"/>
  </g>
</svg>
