<svg xmlns="http://www.w3.org/2000/svg" width="28.968" height="14.484" viewBox="0 0 28.968 14.484">
  <g id="menu_1_" data-name="menu (1)" transform="translate(0 -96.243)">
    <g id="Menu_1_2" data-name="Menu_1_" transform="translate(0 96.243)">
      <path id="Tracé_256" data-name="Tracé 256" d="M.905,98.053H28.063a.905.905,0,1,0,0-1.81H.905a.905.905,0,1,0,0,1.81Z" transform="translate(0 -96.243)" fill="#367cb6"/>
      <path id="Tracé_257" data-name="Tracé 257" d="M28.063,180.455H.905a.905.905,0,1,0,0,1.81H28.063a.905.905,0,1,0,0-1.81Z" transform="translate(0 -174.118)" fill="#367cb6"/>
      <path id="Tracé_258" data-name="Tracé 258" d="M139.313,264.667H121.208a.905.905,0,1,0,0,1.81h18.105a.905.905,0,1,0,0-1.81Z" transform="translate(-111.25 -251.993)" fill="#367cb6"/>
    </g>
  </g>
</svg>
